<svg height="16" width="136" data-name="Layer 1" xmlns="http://www.w3.org/2000/svg" viewBox="0 0 136 14.6"><defs><clipPath id="a"><path fill="none" d="M53.76 0H136v14.6H53.76z"/></clipPath></defs><path d="M0 12.3V5.59h2.27a2.62 2.62 0 011.29.28 1.83 1.83 0 01.74.77 2.25 2.25 0 01.25 1.07 2.26 2.26 0 01-.25 1.08 1.77 1.77 0 01-.74.77 2.55 2.55 0 01-1.28.29H.66v-.72h1.59a1.81 1.81 0 00.87-.19 1.1 1.1 0 00.48-.5 1.73 1.73 0 00.15-.73A1.66 1.66 0 003.6 7a1.1 1.1 0 00-.48-.5 1.86 1.86 0 00-.88-.18H.81v6zm7.74.1a2.29 2.29 0 01-1.2-.32 2.29 2.29 0 01-.8-.91 3.06 3.06 0 01-.28-1.36 3.07 3.07 0 01.28-1.37 2.14 2.14 0 012-1.24 2.14 2.14 0 012 1.24A3.07 3.07 0 0110 9.81a3.06 3.06 0 01-.29 1.36 2.11 2.11 0 01-2 1.23zm0-.69a1.31 1.31 0 00.85-.27 1.6 1.6 0 00.5-.69 2.9 2.9 0 00.16-.94 2.85 2.85 0 00-.16-.94 1.67 1.67 0 00-.5-.71 1.37 1.37 0 00-.85-.26 1.35 1.35 0 00-.85.26 1.67 1.67 0 00-.5.71 2.85 2.85 0 00-.16.94 2.9 2.9 0 00.16.94 1.6 1.6 0 00.5.69 1.29 1.29 0 00.85.27zm4.43.59l-1.54-5h.82l1.08 3.85h.06l1.07-3.85h.83l1.06 3.84 1.09-3.84h.81l-1.45 5h-.76l-1.1-3.87H14l-1.1 3.87zm8.29.1a2.3 2.3 0 01-1.25-.32 2.14 2.14 0 01-.81-.9 3.06 3.06 0 01-.28-1.36 3.09 3.09 0 01.28-1.36 2.16 2.16 0 01.79-.92 2.08 2.08 0 011.19-.34 2.66 2.66 0 01.78.13 2 2 0 01.7.43 2.06 2.06 0 01.5.77 3.43 3.43 0 01.18 1.19V10h-3.87v-.62h3.09a1.67 1.67 0 00-.17-.76 1.23 1.23 0 00-.48-.53 1.35 1.35 0 00-.73-.19 1.41 1.41 0 00-.8.22 1.61 1.61 0 00-.51.59 1.78 1.78 0 00-.18.78v.45a2.21 2.21 0 00.19 1 1.48 1.48 0 00.56.6 1.66 1.66 0 00.82.2 1.59 1.59 0 00.55-.09 1.1 1.1 0 00.43-.26 1.23 1.23 0 00.28-.44l.74.21a1.56 1.56 0 01-.39.67 2.06 2.06 0 01-.69.45 2.65 2.65 0 01-.92.12zm3.26-.1v-5h.75V8h.05a1.23 1.23 0 01.5-.61 1.5 1.5 0 01.81-.23h.4V8h-.18a1.32 1.32 0 00-.29 0 1.38 1.38 0 00-.65.15 1.15 1.15 0 00-.62 1v3.15zm5.39.1a2.32 2.32 0 01-1.26-.32 2.14 2.14 0 01-.81-.9 3.2 3.2 0 01-.28-1.36A3.24 3.24 0 0127 8.46a2.18 2.18 0 01.8-.92A2.05 2.05 0 0129 7.2a2.54 2.54 0 01.77.13 1.9 1.9 0 01.7.43 1.94 1.94 0 01.5.77 3.19 3.19 0 01.19 1.19V10h-3.85v-.62h3.09a1.55 1.55 0 00-.17-.76 1.28 1.28 0 00-.47-.53A1.35 1.35 0 0029 7.9a1.39 1.39 0 00-.8.22 1.73 1.73 0 00-.52.59 1.78 1.78 0 00-.18.78v.45a2.21 2.21 0 00.2 1 1.46 1.46 0 00.55.6 1.7 1.7 0 00.83.2 1.63 1.63 0 00.55-.09 1.18 1.18 0 00.43-.26 1.09 1.09 0 00.27-.44l.75.21a1.67 1.67 0 01-.39.67 2.06 2.06 0 01-.69.45 2.69 2.69 0 01-.89.12zm5.16 0a1.9 1.9 0 01-1.11-.32 2 2 0 01-.76-.9 3.27 3.27 0 01-.27-1.38 3.27 3.27 0 01.27-1.38 2.11 2.11 0 01.76-.9 2 2 0 011.12-.32 1.52 1.52 0 01.77.17 1.16 1.16 0 01.44.36 2.81 2.81 0 01.24.34h.07V5.59h.77v6.71h-.75v-.78h-.09a2.21 2.21 0 01-.24.35 1.31 1.31 0 01-.45.37 1.55 1.55 0 01-.77.16zm.1-.69a1.3 1.3 0 00.79-.24 1.56 1.56 0 00.48-.68 2.64 2.64 0 00.17-1 2.69 2.69 0 00-.16-1 1.42 1.42 0 00-.49-.67 1.34 1.34 0 00-.79-.23 1.29 1.29 0 00-.82.25 1.52 1.52 0 00-.49.68 2.82 2.82 0 00-.16.95 2.76 2.76 0 00.17 1 1.53 1.53 0 00.49.69 1.29 1.29 0 00.81.25zm6.42.59V5.59h.78v2.48h.06l.24-.34a1.24 1.24 0 01.44-.36 1.56 1.56 0 01.78-.17 2 2 0 011.12.32 2.09 2.09 0 01.75.9 3.27 3.27 0 01.27 1.38 3.27 3.27 0 01-.23 1.38 2.09 2.09 0 01-.75.9 1.9 1.9 0 01-1.11.32 1.61 1.61 0 01-.78-.16 1.54 1.54 0 01-.45-.37c-.1-.14-.18-.25-.24-.35h-.09v.78zm.76-2.52a2.85 2.85 0 00.17 1 1.5 1.5 0 00.49.68 1.39 1.39 0 001.59 0 1.46 1.46 0 00.49-.69 2.55 2.55 0 00.17-1 2.59 2.59 0 00-.16-.95 1.45 1.45 0 00-.49-.68A1.29 1.29 0 0043 7.9a1.36 1.36 0 00-.79.23 1.47 1.47 0 00-.48.67 2.68 2.68 0 00-.18.98zm5.18 4.4a1.9 1.9 0 01-.35 0l-.21-.06.2-.68a1.29 1.29 0 00.5.05.56.56 0 00.38-.19 1.53 1.53 0 00.31-.55l.14-.4-1.86-5.08h.84l1.39 4 1.39-4h.84L48.22 13a2.35 2.35 0 01-.36.65 1.31 1.31 0 01-.5.38 1.54 1.54 0 01-.63.15z" fill="#6a6a6a"/><g clip-path="url(#a)"><path d="M56.36 8.7c0 2.69 1.23 4.35 3.1 4.35s3-1.65 3-4.34c0-2.89-1.16-4.37-3-4.37s-3.1 1.47-3.1 4.36zm8.75 0a5.68 5.68 0 11-11.35 0 5.68 5.68 0 1111.35 0zM121.09 6c0-.84.79-1.39 2-1.39 1.37 0 2.13.62 2.22 1.59h2.31c0-2-1.73-3.41-4.53-3.41-2.46 0-4.18 1.21-4.18 3.32 0 4.25 6.71 2.38 6.71 5.15 0 .93-.88 1.52-2.22 1.52-1.5 0-2.38-.64-2.55-1.64h-2.32c.14 2.08 2 3.46 4.87 3.46 2.52 0 4.42-1.2 4.42-3.45-.03-4.24-6.73-2.4-6.73-5.15zm-54.56 8.39V3h2.14v3.54c.63-2.45 2-3.75 4.24-3.75a3.43 3.43 0 013.6 3.79v7.81h-2.34V7.45c0-1.51-.8-2.71-2.36-2.71a3 3 0 00-2.93 3.13v6.52zM116.85 3v11.39h-2.23v-3.53c-.52 2.45-1.85 3.75-4 3.75-2 0-3.5-1.26-3.5-3.79V3h2.33v7c0 1.51.72 2.7 2.25 2.7a3 3 0 002.86-3.12V3zm-33.24 9.93c-2 0-3-1.54-3-4.1v-.2h8.29C88.82 5 87 2.79 83.52 2.79c-3.24 0-5.53 2.38-5.53 6 0 3.29 1.92 5.82 5.6 5.82 3.49 0 5.13-2.27 5.23-4.31h-2.39c-.17 1.63-.84 2.63-2.82 2.63zm-.07-8.47a2.76 2.76 0 012.77 2.93h-5.6C81 5.46 82 4.46 83.54 4.46zM105.58 3v2.35c-.78 0-1.09-.07-1.36-.07-1.65 0-2.71.72-3.06 2.78a7.85 7.85 0 00-.09 1.19v5.14h-2.33V3h2.12v3.58a14.9 14.9 0 01.79-2A2.59 2.59 0 01104 3zm27.49 8.85c0 .75.27 1 1 1h1.91v1.49h-2.72a2.26 2.26 0 01-2.48-2.49V4.63h-2.27V3.31h1.14a1.5 1.5 0 001-.28 1.72 1.72 0 00.32-1c0-.27.06-.61.08-1s0-.94 0-1h2V3H136v1.64h-2.92zm-39.18 0c0 .75.26 1 1 1h1.91v1.49h-2.71a2.27 2.27 0 01-2.48-2.49V4.63h-2.27V3.31h1.15a1.49 1.49 0 00.94-.31 1.72 1.72 0 00.32-1c0-.27.07-.61.09-1s0-.94 0-1h2v3h2.93v1.64h-2.88z" fill="#689d65"/></g></svg>