<svg xmlns="http://www.w3.org/2000/svg" xmlns:xlink="http://www.w3.org/1999/xlink" width="320" height="320" viewBox="0 0 320 320"><defs><clipPath id="a"><path d="M2708.953,242.654c-17.806,9.691-17.186,45.06,6.309,83.737,13.712,29.657,11.442,35.693,3.29,49.225-1.561,2.591-4.281,6.11-7.228,10.19l49.208,7.093c-5.514-14.98-13.282-30.711-1.71-56.736,5.43-12.213,19.871-33.689,13.912-48-6.788-16.305-20.192-9.254-23.6-21.879-4.115-15.234-15.073-26.883-28.156-26.884a25.01,25.01,0,0,0-12.023,3.253" transform="translate(-2696.51 -239.401)" fill="none"/></clipPath><linearGradient id="b" x1="-7.322" y1="1.715" x2="-7.319" y2="1.715" gradientUnits="objectBoundingBox"><stop offset="0" stop-color="#ffc444"/><stop offset="0.996" stop-color="#f36f56"/><stop offset="1" stop-color="#f36f56"/></linearGradient><clipPath id="c"><rect width="80.145" height="161.58" fill="none"/></clipPath><clipPath id="d"><path d="M2758.823,336.164c5.43-12.213,19.871-33.689,13.912-48-6.788-16.305-20.193-9.254-23.6-21.879-5.33-19.732-22.138-33.45-40.179-23.631-17.806,9.691-17.186,45.06,6.309,83.737,13.712,29.657,11.442,35.693,3.29,49.224-5.71,9.478,19.853,6.467,40.271-39.452" transform="translate(-2696.51 -239.401)" fill="none"/></clipPath><clipPath id="e"><path d="M2576.107,384.976c-10.012,6.471-.089,23.822-6.946,34.645-6.516,10.285-2.678,20.705,8.734,27.758s7.874,13.536,5.782,24.247c-1.849,9.47,6.24,12.871,13.355,14.235l18.889,5.672c19.265-10.956,20.417-26.69,11.233-45.153-9.733-3.681-21.711,2.2-18.717-20.449,2.635-19.934-9.821-43.49-24.275-43.489a14.7,14.7,0,0,0-8.056,2.533" transform="translate(-2565.992 -382.443)" fill="none"/></clipPath><clipPath id="f"><rect width="68.083" height="107.261" fill="none"/></clipPath><clipPath id="g"><path d="M2603.807,486.731c-6.811-.575-22.643-2.24-20.13-15.1,2.091-10.71,5.63-17.194-5.782-24.247s-15.249-17.473-8.734-27.758c6.857-10.823-3.065-28.175,6.946-34.645,17.446-11.275,35.448,17.375,32.33,40.956s10,16.232,19.911,20.955c13.531,6.448-19.038,40.309-24.541,39.845" transform="translate(-2565.993 -382.443)" fill="none"/></clipPath><clipPath id="h"><path d="M2588.668,952.75a2.861,2.861,0,0,0,2.133,2.934l58.718,10.634a8.026,8.026,0,0,0,2.107.1l142.44-12.125a2.72,2.72,0,0,0,2.257-2.864v-2.254l-207.654-1.825Z" transform="translate(-2588.668 -947.35)" fill="#255276"/></clipPath><clipPath id="i"><path d="M2584.615,544.039a4.387,4.387,0,0,0-4.346,4.409v99.938a4.243,4.243,0,0,0,2.138,3.726,4.091,4.091,0,0,0,1.376.435,4.179,4.179,0,0,0,.485.027c.115,0,.23-.022.348-.03l.977-.113h0l33.642-2.516,29.884-2.228,65.647-4.982a3.529,3.529,0,0,0,2.435-1.354,4.78,4.78,0,0,0,1.045-3v-90.34a3.719,3.719,0,0,0-3.482-3.977Z" transform="translate(-2580.269 -544.039)" fill="#32678d"/></clipPath><clipPath id="j"><path d="M2592.6,544.039a4.371,4.371,0,0,0-4.328,4.409v99.938a4.482,4.482,0,0,0,.22,1.229,4.007,4.007,0,0,0,2.739,2.787.94.94,0,0,0,.27.029h0c.11,0,.223.08.335.093a3.867,3.867,0,0,0,.762.057l34.4-2.612,95.746-7.272a2.985,2.985,0,0,0,.608-.118c.086-.024.17-.1.254-.1h0a4.369,4.369,0,0,0,1.476-1.021,4.732,4.732,0,0,0,1.16-3.105v-90.34a3.733,3.733,0,0,0-3.5-3.977Z" transform="translate(-2588.269 -544.039)" fill="#274f75"/></clipPath><clipPath id="k"><rect width="136.713" height="108.715" fill="none"/></clipPath><clipPath id="l"><path d="M2728.228,919.092l-139.56,10.4,60.851,11.02a8,8,0,0,0,2.107.1l144.7-12.317-65.874-9.132a10.467,10.467,0,0,0-1.441-.1q-.39,0-.779.029" transform="translate(-2588.668 -919.063)" fill="#32678d"/></clipPath><clipPath id="m"><rect width="152.147" height="14.337" fill="none"/></clipPath><clipPath id="n"><path d="M2666.448,935.118l116.188-8.787,35.959,4.945-115.187,9.392Z" transform="translate(-2666.448 -926.331)" fill="none"/></clipPath><linearGradient id="o" x1="-4.588" y1="6.176" x2="-4.587" y2="6.176" gradientUnits="objectBoundingBox"><stop offset="0" stop-color="#40447e"/><stop offset="0.996" stop-color="#3c3b6b"/><stop offset="1" stop-color="#3c3b6b"/></linearGradient><clipPath id="p"><rect width="125.934" height="96.337" fill="none"/></clipPath><clipPath id="q"><path d="M2663.882,439.612V546.26a5.686,5.686,0,0,0,6.1,5.71l142.859-8.249a5.58,5.58,0,0,0,4.932-5.714V442.484a5.347,5.347,0,0,0-4.932-5.542l-142.859-3.254-.142,0a5.925,5.925,0,0,0-5.958,5.925" transform="translate(-2663.882 -433.687)" fill="none"/></clipPath><clipPath id="r"><rect width="118.472" height="123.965" fill="none"/></clipPath><clipPath id="s"><path d="M3164.775,541.968c-1.2.521-5.88,6.12-5.88,6.12l1.979,1.275a7.626,7.626,0,0,1,5.387-2.346c3.514-.106,8.3-2.191,10.359-2.375.5-.044.742-.187.784-.368.087-.373-2.2-.916-4.221-.984a14.708,14.708,0,0,0-3.709.373c-1.351.295-2.179.589-2.46.177-.541-.792,1.776-2.953,1.352-3.437a.237.237,0,0,0-.188-.071c-.551,0-1.935,1-3.4,1.635" transform="translate(-3158.895 -540.333)" fill="#ffb882"/></clipPath><clipPath id="t"><path d="M2964.956,510.477c-4.092,2.321-3.545,10.078-3.365,12.622.828,11.742,9.175,19.376,10.1,20.2,1.68,1.492,15.677,13.523,29.717,6.734,8.285-4.006,13.514-13.081,13.728-23.191l-3.882-2.581c-6.883,9.016-11.457,10.236-14.332,9.748-6.4-1.086-6.682-11.035-18.285-19.234-2.208-1.56-7.008-4.953-11-4.953a5.355,5.355,0,0,0-2.682.658" transform="translate(-2961.463 -509.819)" fill="#228f5e"/></clipPath><clipPath id="u"><path d="M2957.854,795.621q.64,5.038,1.471,9.6l26.032-1.507q-.3-7.1-.376-13.784l-27.127,5.693" transform="translate(-2957.854 -789.928)" fill="none"/></clipPath><linearGradient id="v" x1="-24.648" y1="5.14" x2="-24.64" y2="5.14" gradientUnits="objectBoundingBox"><stop offset="0" stop-color="#444b8c"/><stop offset="0.996" stop-color="#26264f"/><stop offset="1" stop-color="#26264f"/></linearGradient><clipPath id="w"><path d="M2555.82,348.746,2578.707,456.3l28.182,5.928,92.162-5.334,62.268-71.477-40.807-64.5Z" transform="translate(-2555.82 -320.916)" fill="none"/></clipPath><clipPath id="x"><rect width="42.194" height="114.536" fill="none"/></clipPath><clipPath id="y"><path d="M2984.981,789.927c-5.332,4.065-11.96,10.475-11.75,18.2.156,5.731,3.929,6.786,6.732,15.146,3.437,10.251-.75,13.1,1.683,26.085,1.811,9.665,4.036,7.579,6.732,19.354,2.4,10.484,1.334,15.183,5.049,23.561a45.252,45.252,0,0,0,6.622,10.615l-5.857,1.576c-4.953-4.618-11.2-11.888-14.216-22.162-1.872-6.377-1.247-9.654-2.435-17.5-1.889-12.488-5.718-19.031-9.674-29.1a165.664,165.664,0,0,1-10.012-40.082l27.127-5.693" transform="translate(-2957.854 -789.927)" fill="none"/></clipPath><linearGradient id="z" x1="-8.857" y1="1.05" x2="-8.854" y2="1.05" xlink:href="#v"/><clipPath id="aa"><path d="M2869.564,798.148a16.78,16.78,0,0,0-3.262,8.542l28.8-1.667q.376-7.541.786-15.019-1.678-.079-3.221-.078c-15.662,0-21.247,5.816-23.106,8.223" transform="translate(-2866.302 -789.925)" fill="none"/></clipPath><linearGradient id="ab" x1="-22.009" y1="4.413" x2="-22.001" y2="4.413" xlink:href="#v"/><clipPath id="ac"><path d="M2708.091,411.275a57.676,57.676,0,0,1-16.8,1.973c-4.024-.04-6.867-.079-10.53,2.19-6.963,4.312-3.914,9.034-10.676,14.091-5.7,4.266-11.561,3.912-16.971,3.557-4.985-.326-9.59-.653-13.347,2.635-7.409,6.485-7.58,23.009.214,32.026,8.834,10.222,24.765,7.151,35.442,5.124a65.257,65.257,0,0,0,25.407-11.529,67.649,67.649,0,0,0,13.878-13.771,5.011,5.011,0,0,1,3.1-1.815,5.413,5.413,0,0,1,3.63,1.281c3.368,2.333,9.224,3.881,11.423,2.455,2.239-1.451.2-5.673.078-14.741-.148-11.113,2.8-13.183.433-17.543-2.9-5.331-10.2-7.537-15.03-7.641-.366-.008-.636-.081-1.193-.081-1.067,0-3.187.27-9.056,1.79" transform="translate(-2634.175 -409.485)" fill="none"/></clipPath><linearGradient id="ad" x1="-5.457" y1="2.151" x2="-5.455" y2="2.151" gradientUnits="objectBoundingBox"><stop offset="0" stop-color="#311944"/><stop offset="1" stop-color="#6b3976"/></linearGradient><clipPath id="ae"><path d="M2807.141,515.823c-1.281,1.451-2.58,3.588-3.576,8.3-3.494,16.549,5.806,22.443,4.536,37.459-.145,1.72-1.769,18.232-13.759,28.38-5.7,4.826-12.2,6.9-12.04,11.18a4.157,4.157,0,0,0,.041.451l79.481-4.6c-.745-2.857-2.538-7.213-4.7-15.63-.384-1.494-6.958-27.456-4.969-38.769a53.9,53.9,0,0,0,.582-10.231,24.931,24.931,0,0,0-.582-4.5,33.126,33.126,0,0,0-7.321-13.7c-.823-.909-1.8-1.855-10.761-2.213a46.987,46.987,0,0,0-11.733-1.585c-5.385,0-11.4,1.158-15.195,5.453" transform="translate(-2782.298 -510.37)" fill="#37af79"/></clipPath><clipPath id="ag"><rect width="79.799" height="92.611" fill="none"/></clipPath><clipPath id="ah"><path d="M2807.141,531.2c-1.884-.021-3.354,7.254-3.576,8.3-3.494,16.549,5.8,22.443,4.535,37.459-.145,1.72-1.769,18.232-13.759,28.38-5.7,4.826-12.2,6.9-12.04,11.18.115,3.08,3.627,5.887,6.879,6.88,6.223,1.9,9.854-3.345,18.06-5.16,8.576-1.9,10.564,2.515,24.08,4.3,4.5.594,25.033,3.306,30.1-5.16.523-.874.72-1.257.669-1.63-.566-4.114-19.577-.372-24.341-7.87-4.655-7.326,7.406-20.474,3.366-24.4-3.155-3.068-11.2,4.281-17.671.841-4.057-2.157-4.727-7.086-6.732-17.671-3.521-18.585-6.71-35.419-9.57-35.451" transform="translate(-2782.298 -531.198)" fill="none"/></clipPath><linearGradient id="ai" x1="-6.07" y1="1.834" x2="-6.068" y2="1.834" gradientUnits="objectBoundingBox"><stop offset="0" stop-color="#ff9085"/><stop offset="1" stop-color="#fb6fbb"/></linearGradient><clipPath id="aj"><path d="M2932.637,479.273a13.749,13.749,0,0,1-3.808.963c-1.416.265-2.6.428-3.443.528a8.689,8.689,0,0,0,1.708,4.373c3.443,4.417,10.347,3.274,11.331,3.095,3.473-.632,6.89-1.705,7.715-2.361a17.483,17.483,0,0,0,2.829-2.508,49.2,49.2,0,0,0-5.878-2.923,33.761,33.761,0,0,0-3.8-.932q-.286-1.839-.573-3.678l-5.027-5.719c.253,1.183,1.542,7.53-1.055,9.163" transform="translate(-2925.386 -470.11)" fill="#ffb882"/></clipPath><clipPath id="ak"><path d="M2959.31,452.728a6.015,6.015,0,0,0-5.044,4.884c-.7-.737-1.572-.949-2-.64-.546.392-.254,1.53-.187,1.788a3.28,3.28,0,0,0,1.094,1.682s.469,4.651,4.991,5.471c4.048.734,7.1-9.049,5.024-11.579a5.428,5.428,0,0,0-3.763-1.606l-.113,0" transform="translate(-2951.94 -452.726)" fill="#ffb882"/></clipPath><clipPath id="al"><path d="M2877.571,602.645l-12.892,32.913a2.993,2.993,0,0,0,1.953,3.966l25.567,7.419a2.993,2.993,0,0,0,3.6-1.74l12.607-31.22a3.915,3.915,0,0,0-2.439-5.2l-24.949-7.969a3.028,3.028,0,0,0-.666-.075,3,3,0,0,0-2.786,1.9" transform="translate(-2864.473 -600.743)" fill="#e14778"/></clipPath><clipPath id="am"><path d="M2980.543,677.235c0,1.683-2.524,3.366-2.524,3.366l1.893,2.1a8.646,8.646,0,0,0,9.046-6.311,6.684,6.684,0,0,1,1.683-2.524c.841-.841-.842-.841-2.525.842s-5.89,2.524-5.048.841.841-2.524,0-2.524-2.525,2.524-2.525,4.207" transform="translate(-2978.019 -673.028)" fill="#fdc06b"/></clipPath><clipPath id="an"><path d="M2808.664,526.963c-8.482,9.325-20.518,30.463-10.939,42.915,7.991,10.388,29.446,12.677,47.123-.841l-2.525-5.049c-1.835.666-13.9,4.843-22.719-1.683-1.87-1.384-2.7-3.764-3-6.982-.565-6,6.5-7.594,10.577-16.579,3.607-7.953,2.117-18.966-2.524-21.037a4.477,4.477,0,0,0-1.842-.373c-5.386,0-12.719,8.06-14.146,9.63" transform="translate(-2794.194 -517.333)" fill="none"/></clipPath><clipPath id="ao"><path d="M10.485,0H32.98A10.485,10.485,0,0,1,43.464,10.485v26.8A10.485,10.485,0,0,1,32.979,47.774h-22.5A10.484,10.484,0,0,1,0,37.29V10.485A10.485,10.485,0,0,1,10.485,0Z" fill="#6b3976"/></clipPath><clipPath id="ap"><path d="M10.486,0H32.981A10.484,10.484,0,0,1,43.465,10.484V37.289A10.485,10.485,0,0,1,32.98,47.774H10.485A10.485,10.485,0,0,1,0,37.289v-26.8A10.486,10.486,0,0,1,10.486,0Z" fill="none"/></clipPath><clipPath id="aq"><path d="M3040.052,458.212h16.285l-4.618-12.741Z" transform="translate(-3040.052 -445.471)" fill="#fdb250"/></clipPath></defs><rect width="320" height="320" fill="#fff" opacity="0"/><g transform="translate(52 51)"><path d="M2718.581,213.093c-50.815-1.543-94.831,36.374-101.482,86.127-7.27,54.4,32.748,103.342,81.989,111.181,61.247,9.751,120.654-46.658,115.319-107.853-4.019-46.105-44.172-87.886-95.826-89.455" transform="translate(-2600.423 -205.605)" fill="#ede9e5"/><g transform="translate(36.835 14.343)"><g clip-path="url(#a)"><rect width="95.173" height="157.718" transform="translate(-13.092 0.39) rotate(-2.89)" fill="url(#b)"/></g></g><g transform="translate(34.33 0)" style="mix-blend-mode:soft-light;isolation:isolate"><g clip-path="url(#c)"><g transform="translate(2.506 14.343)"><g clip-path="url(#d)"><path d="M2754.115,346.18c.351-6.462.355-12.575.358-19.047l0-2.158c-.191-3.117-.294-6.195-.393-9.171A144.4,144.4,0,0,0,2752.5,296c-.022-.394-.025-.776-.027-1.181a8.215,8.215,0,0,0-.857-4.37l-.019-.059c-3.4-35.646-14.218-71.188-32.143-105.636l.256-.133c17.935,34.471,28.759,70.037,32.17,105.71a8.607,8.607,0,0,1,.881,4.488c0,.4,0,.78.024,1.151a144.371,144.371,0,0,1,1.581,19.832c.1,2.975.2,6.051.393,9.172v2.167c0,6.476-.008,12.592-.359,19.062Z" transform="translate(-2713.45 -198.959)" fill="#fcfdfe"/><path d="M2850.463,463.964c-.327-16.859,8.552-36.89,16.059-50.727A239.43,239.43,0,0,1,2883.049,387l.231.173a239.089,239.089,0,0,0-16.506,26.209c-7.489,13.8-16.348,33.785-16.022,50.58Z" transform="translate(-2810.149 -348.353)" fill="#fcfdfe"/><path d="M2806.033,273.273c-1.344-17.87,1.385-36.936,2.281-43.2.171-1.2.285-1.99.279-2.144l.289-.01c.006.172-.083.8-.282,2.195-.9,6.257-3.621,25.3-2.279,43.138Z" transform="translate(-2777.089 -230.924)" fill="#fcfdfe"/><path d="M2724.84,427.32c-6.04-15.393-37.577-29.024-37.9-29.16l.113-.265c.319.136,31.966,13.816,38.05,29.32Z" transform="translate(-2689.449 -356.399)" fill="#fcfdfe"/></g></g></g></g><g transform="translate(2.663 51.793)"><g clip-path="url(#e)"><rect width="130.299" height="113.856" transform="translate(-46.124 88.39) rotate(-64.176)" fill="#fdb250"/></g></g><g transform="translate(0.199 48.825)" style="mix-blend-mode:soft-light;isolation:isolate"><g clip-path="url(#f)"><g transform="translate(2.464 2.968)"><g clip-path="url(#g)"><path d="M2652.02,458.712a149.5,149.5,0,0,1-16.558-32.116,144.805,144.805,0,0,1-8.264-35.107,136.614,136.614,0,0,1-.623-20.382l.294.013a136.354,136.354,0,0,0,.622,20.338,144.5,144.5,0,0,0,8.247,35.035,149.174,149.174,0,0,0,16.526,32.053Z" transform="translate(-2610.615 -374.074)" fill="#fcfdfe"/><path d="M2626.426,736.332l-.095-.279a50.617,50.617,0,0,1,13.182-2.422,49.4,49.4,0,0,1,6.824.046l-.023.294a49.044,49.044,0,0,0-6.783-.046,50.316,50.316,0,0,0-13.1,2.406" transform="translate(-2610.534 -641.613)" fill="#fcfdfe"/><path d="M2586.718,571.489c-8.579-11.08-29.927-13.258-30.141-13.277l.029-.294c.216.021,21.689,2.209,30.346,13.39Z" transform="translate(-2559.042 -511.976)" fill="#fcfdfe"/><path d="M2638.521,416.376c-.766-15.815,13.326-31.931,13.469-32.092l.221.2c-.142.16-14.156,16.188-13.4,31.882Z" transform="translate(-2619.51 -383.802)" fill="#fcfdfe"/></g></g></g></g><g transform="translate(8.6 199.696)"><g clip-path="url(#h)"><rect width="198.86" height="98.046" transform="translate(-6.829 2.868) rotate(-22.782)" fill="#255276"/></g></g><g transform="translate(6.401 94.102)"><g clip-path="url(#i)"><rect width="169.242" height="153.499" transform="matrix(0.922, -0.387, 0.387, 0.922, -38.75, 16.275)" fill="#32678d"/></g></g><g transform="translate(8.496 94.102)"><g clip-path="url(#j)"><rect width="137.978" height="108.56" transform="translate(0)" fill="#274f75"/></g></g><path d="M2734.949,652.394l-121.221,8.582a3.281,3.281,0,0,1-3.436-3.444v-87.5a3.589,3.589,0,0,1,3.436-3.7l121.221-.539a3.123,3.123,0,0,1,2.862,3.346v79.693a3.42,3.42,0,0,1-2.862,3.561" transform="translate(-2596.03 -465.996)" fill="#d8dee8"/><path d="M2862.453,549.335a1.509,1.509,0,1,1-1.5-1.68,1.6,1.6,0,0,1,1.5,1.68" transform="translate(-2779.958 -452.606)" fill="#fff"/><g transform="translate(8.601 93.995)" opacity="0.48" style="mix-blend-mode:soft-light;isolation:isolate"><g clip-path="url(#k)"><path d="M2691.683,614.995c-10.033-5.8-17.922,1.549-25.536-5.7-4.616-4.4-2.35-7.673-8.029-14.24-6.291-7.274-10.386-4.829-16.709-11.376-7.994-8.278-4-14.719-10.881-20.663-8.354-7.21-17.363-.537-25.314-7.452-3.43-2.982-5.312-7.318-6.294-11.93h-7.78a2.566,2.566,0,0,0-2.471,2.651V649.878a2.345,2.345,0,0,0,2.471,2.463l132.644-10.113a2.12,2.12,0,0,0,1.6-1.05c-9.71-.38-15.675-3.877-19.489-7.491-7.459-7.071-6.165-14.044-14.21-18.692" transform="translate(-2588.668 -543.633)" fill="#fff"/></g></g><g transform="translate(8.6 192.29)"><g clip-path="url(#l)"><rect width="207.654" height="21.608" fill="#32678d"/></g></g><g transform="translate(28.965 194.193)" opacity="0.3" style="mix-blend-mode:multiply;isolation:isolate"><g clip-path="url(#m)"><g transform="translate(-0.001)"><g clip-path="url(#n)"><rect width="152.147" height="14.337" fill="url(#o)"/></g></g></g></g><g transform="translate(20.54 94.102)" opacity="0.3" style="mix-blend-mode:multiply;isolation:isolate"><g clip-path="url(#p)"><path d="M2760.2,548.016v85.376l-2.089.126-2.7.16-2.465.147-12.739.759-96.834,5.776a8.777,8.777,0,0,1-1.825-.076,8.316,8.316,0,0,1-6.452-4.88,8.533,8.533,0,0,1-.485-1.22,8.637,8.637,0,0,1-.347-2.212V544.039H2756.7a3.733,3.733,0,0,1,3.5,3.977" transform="translate(-2634.269 -544.039)" fill="#c7ccd3"/></g></g><path d="M2803.414,434.579a8.074,8.074,0,0,0-5.8-7.946c-.118-.03-.249-.056-.369-.079a6.8,6.8,0,0,0-1.111-.119l-70.7-1.746-72.265-1.785c-.154,0-.309,0-.462,0a8.766,8.766,0,0,0-5.2,1.86l-.079.062c-.206.165-.405.339-.595.523l-.014.012c-.112.109-.221.221-.327.336a8.647,8.647,0,0,0-2.311,5.912V538.5a8.677,8.677,0,0,0,.284,2.214,8.284,8.284,0,0,0,6.875,6.1,8.92,8.92,0,0,0,1.825.077l109.57-6.536,33.412-1.992c4.007-.239,7.26-4,7.26-8.4V434.579Z" transform="translate(-2621.052 -360.516)" fill="#b8aca7"/><path d="M2804.725,426.4l-142.86-3.529a8.7,8.7,0,0,0-8.977,8.7V538.427a8.344,8.344,0,0,0,8.977,8.388l142.86-8.524c4-.239,7.232-4,7.232-8.394V434.54c0-4.4-3.228-8.042-7.232-8.141" transform="translate(-2627.474 -360.489)" fill="#c9beb9"/><g transform="translate(28.293 65.21)"><g clip-path="url(#q)"><rect width="178.922" height="153.657" transform="matrix(0.967, -0.254, 0.254, 0.967, -29.087, 7.633)" fill="#e1d6d1"/></g></g><path d="M2804.725,426.4l-142.859-3.529a8.7,8.7,0,0,0-8.978,8.7v6.4l159.069,2.28V434.54c0-4.4-3.228-8.042-7.232-8.141" transform="translate(-2627.474 -360.489)" fill="#c9beb9"/><path d="M2697.39,445.661a2.834,2.834,0,0,1-2.9,2.839,2.968,2.968,0,0,1-2.91-2.951,2.833,2.833,0,0,1,2.91-2.839,2.969,2.969,0,0,1,2.9,2.95" transform="translate(-2656.036 -375.137)" fill="#fff"/><path d="M2736.152,446.461a2.8,2.8,0,0,1-2.859,2.82,2.936,2.936,0,0,1-2.87-2.93,2.8,2.8,0,0,1,2.87-2.82,2.938,2.938,0,0,1,2.859,2.93" transform="translate(-2684.709 -375.743)" fill="#fff"/><path d="M2774.383,447.25a2.775,2.775,0,0,1-2.82,2.8,2.907,2.907,0,0,1-2.831-2.909,2.775,2.775,0,0,1,2.831-2.8,2.908,2.908,0,0,1,2.82,2.909" transform="translate(-2712.989 -376.341)" fill="#fff"/><path d="M2833.008,618.484l-140.164,7.521v-83.8l140.164.482Z" transform="translate(-2656.969 -448.586)" fill="#fff"/><path d="M2769.343,509.78l-76.5-.715v4.526l76.5.48Z" transform="translate(-2656.969 -424.12)" fill="#d8dee8"/><path d="M3198.559,513.794v4.118l7.76.049v-4.094Z" transform="translate(-3030.279 -427.611)" fill="#d8dee8"/><g transform="translate(25.415 62.377)" opacity="0.5" style="mix-blend-mode:soft-light;isolation:isolate"><g clip-path="url(#r)"><path d="M2750.23,480.487c-16.628-24.065-45.692-15.812-64.266-42.739a58.846,58.846,0,0,1-7.221-14.463l-16.878-.417a8.7,8.7,0,0,0-8.977,8.7V538.426a8.344,8.344,0,0,0,8.977,8.388l109.5-6.533a87.639,87.639,0,0,1-8.66-15.411c-9.633-22.1-2.495-29.945-12.47-44.382" transform="translate(-2652.889 -422.865)" fill="#fff"/></g></g><g transform="translate(157.895 93.132)"><g clip-path="url(#s)"><rect width="20.239" height="18.509" transform="translate(-4.367 3.37) rotate(-37.653)" fill="#ffb882"/></g></g><g transform="translate(106.204 85.143)"><g clip-path="url(#t)"><rect width="71.589" height="71.625" transform="matrix(0.705, -0.71, 0.71, 0.705, -24.098, 23.664)" fill="#228f5e"/></g></g><g transform="translate(105.259 158.48)"><g clip-path="url(#u)"><rect width="31.341" height="25.13" transform="translate(-5.668 2.514) rotate(-23.922)" fill="url(#v)"/></g></g><g transform="translate(0 35.685)"><g clip-path="url(#w)"><g transform="translate(105.258 122.795)" opacity="0.3" style="mix-blend-mode:multiply;isolation:isolate"><g clip-path="url(#x)"><g transform="translate(0.001)"><g clip-path="url(#y)"><rect width="85.014" height="121.806" transform="translate(-42.455 18.833) rotate(-23.923)" fill="url(#z)"/></g></g></g></g></g></g><g transform="translate(81.29 158.479)"><g clip-path="url(#aa)"><rect width="33.997" height="29.599" transform="matrix(0.857, -0.515, 0.515, 0.857, -7.396, 4.438)" fill="url(#ab)"/></g></g><g transform="translate(20.515 58.873)"><g clip-path="url(#ac)"><rect width="124.138" height="114.834" transform="translate(-33.817 21.621) rotate(-34.186)" fill="url(#ad)"/></g></g><g transform="translate(59.296 85.287)"><g clip-path="url(#ae)"><rect width="120.977" height="120.686" transform="matrix(0.694, -0.72, 0.72, 0.694, -45.742, 47.239)" fill="#37af79"/></g></g><g transform="translate(0 35.685)"><g clip-path="url(#w)"><g transform="translate(59.296 55.055)" opacity="0.3" style="mix-blend-mode:multiply;isolation:isolate"><g clip-path="url(#ag)"><g transform="translate(-0.001 0)"><g clip-path="url(#ah)"><rect width="116.94" height="108.45" transform="matrix(0.356, -0.935, 0.935, 0.356, -31.638, 82.663)" fill="url(#ai)"/></g></g></g></g></g></g><g transform="translate(96.759 74.746)"><g clip-path="url(#aj)"><rect width="24.063" height="27.215" transform="translate(-4.086 18.543) rotate(-77.574)" fill="#ffb882"/></g></g><g transform="translate(103.711 70.195)"><g clip-path="url(#ak)"><rect width="16.245" height="15.944" transform="matrix(0.191, -0.982, 0.982, 0.191, -2.825, 13.414)" fill="#ffb882"/></g></g><g transform="translate(80.811 108.948)"><g clip-path="url(#al)"><rect width="55.551" height="56.552" transform="matrix(0.967, -0.253, 0.253, 0.967, -11.848, 2.985)" fill="#e14778"/></g></g><g transform="translate(110.539 127.874)"><g clip-path="url(#am)"><rect width="12.174" height="14.94" transform="translate(-1.638 9.825) rotate(-80.538)" fill="#fdc06b"/></g></g><g transform="translate(62.411 87.11)"><g clip-path="url(#an)"><path d="M0,0H86.306V86.091H0Z" transform="translate(-38.638 33.772) rotate(-46.021)" fill="#37af79"/></g></g><g transform="translate(81.31 155.036)" opacity="0.4"><path d="M2877.681,788.865a5.929,5.929,0,0,1-5.628,5.835,5.334,5.334,0,0,1-5.675-5.341,5.927,5.927,0,0,1,5.675-5.837,5.335,5.335,0,0,1,5.628,5.343" transform="translate(-2866.378 -781.752)" fill="#fff"/><path d="M2964.5,785.353a5.783,5.783,0,0,1-5.444,5.735,5.2,5.2,0,0,1-5.489-5.257,5.78,5.78,0,0,1,5.489-5.737,5.2,5.2,0,0,1,5.444,5.259" transform="translate(-2930.737 -779.221)" fill="#fff"/><path d="M3048.486,781.955a5.644,5.644,0,0,1-5.269,5.638,5.076,5.076,0,0,1-5.311-5.175,5.64,5.64,0,0,1,5.311-5.64,5.078,5.078,0,0,1,5.269,5.177" transform="translate(-2992.997 -776.773)" fill="#fff"/></g><g transform="translate(163.611 16.131)"><g clip-path="url(#ao)"><rect width="54.167" height="57.242" transform="matrix(0.967, -0.254, 0.254, 0.967, -11.729, 3.078)" fill="#6b3976"/></g></g><g transform="translate(136.083 33.262)"><g clip-path="url(#ap)"><path d="M0,0H63.991V64.532H0Z" transform="matrix(0.767, -0.642, 0.642, 0.767, -23.512, 19.668)" fill="#fdb250"/></g></g><g transform="translate(126.78 68.295)"><g clip-path="url(#aq)"><rect width="20.666" height="20.222" transform="translate(-6.27 5.245) rotate(-39.914)" fill="#fdb250"/></g></g></g></svg>