<svg xmlns="http://www.w3.org/2000/svg" xmlns:xlink="http://www.w3.org/1999/xlink" width="320" height="320" viewBox="0 0 320 320"><defs><clipPath id="a"><path d="M525.527,397.479q-.217.349-.431.678l-.011.016-.106.162c-4.983,7.536-17.1,1.8-18.323,13.651a52.269,52.269,0,0,0-.236,5.367c0,1.862.055,3.663.055,5.362,0,5.583-.59,10.059-5.664,11.924-6.114,2.248-9.875,6.285-9.874,13.264a28.18,28.18,0,0,0,1.2,7.63l15.132,8.217s6.39-5.623,6.383-12.619q0-.539-.053-1.088-.116-1.186-.115-2.254c-.006-13.058,12.4-13.323,17.745-14.222a23.659,23.659,0,0,0,6.066-1.811c2.907-1.388,4.86-3.405,5.122-6.056.058-1.806-.829-3.885-3-6.213-5.289-5.659,2.1-11.926,11.973-14.968a39.584,39.584,0,0,1,11.1-1.852c6.771-.159,11.993-6.208,11.994-12.555,0-6.548-5.559-13.41-20.711-14.444q-.444-.03-.878-.046c-.33-.012-.658-.018-.979-.018-15.771,0-21.673,14.317-26.379,21.873" transform="translate(-490.937 -375.606)" fill="none"/></clipPath><clipPath id="b"><path d="M524.979,398.336c-4.983,7.536-17.1,1.8-18.323,13.651-1.043,10.121,2.223,19.687-5.845,22.654s-12.038,9.048-8.674,20.894l15.132,8.217s7.063-6.215,6.33-13.707c-1.5-15.285,11.995-15.529,17.63-16.476,8.5-1.429,15.365-6.395,8.183-14.08s9.01-16.491,23.068-16.82c13.757-.323,21.122-24.963-8.717-27-.633-.043-1.253-.064-1.857-.064-16.389,0-22.121,15.461-26.927,22.73" transform="translate(-490.937 -375.606)" fill="none"/></clipPath><clipPath id="c"><rect width="81.981" height="86.95" fill="none"/></clipPath><clipPath id="d"><path d="M427.537,205.6c-2.123,3.22-5.247,1.552-8.622,3.046a8.561,8.561,0,0,0-2.94,2.246c-4.46,4.781.986,12.037-2.428,17.852-3.023,5.15-9.091,2.522-11.613,7.389-2.285,4.409,2.1,7.709,3.049,20.686.089,1.226-.593,2.939.167,6.153,1.237,5.235,4.736,14.684-.237,18.023s-.1,12.671-.1,12.671l2.019.384a21.329,21.329,0,0,0,4.623.315c4-.759,5.939-.527,9.784-1.9a4.648,4.648,0,0,1,1.1-.351c1.428-2.917,2.739-7.154.143-10.919-2.968-4.3.891-9.409,6.2-14.342s-.434-14.994-1.576-18.984c-1.632-5.7-1.832-8.092,6.782-17.213,13.4-11.3,17.6-23.851,11.812-29.206a9.889,9.889,0,0,0-6.828-2.784c-4.281,0-8.583,2.771-11.329,6.936" transform="translate(-401.284 -198.668)" fill="#fd7e50"/></clipPath><clipPath id="e"><path d="M431.732,205.6c-2.73,4.141-7.115.2-11.562,5.292-3.9,4.472-.733,13.672,0,18.608,2.74,18.559-14.176,19.27-10.82,33.473,1.237,5.235,4.736,14.684-.237,18.023s.272,12.986.272,12.986l15.053,1.721s6.754-7.961,2.238-14.51c-2.967-4.3.891-9.409,6.2-14.342s-.434-14.994-1.576-18.984c-1.631-5.7-1.832-8.092,6.782-17.213,13.4-11.3,17.6-23.851,11.812-29.206a9.89,9.89,0,0,0-6.828-2.784c-4.281,0-8.583,2.771-11.329,6.936" transform="translate(-406.967 -198.668)" fill="none"/></clipPath><clipPath id="f"><rect width="46.968" height="98.566" fill="none"/></clipPath><clipPath id="g"><path d="M485.269,203.377c-5.183,2.848-10.627,5.695-16.459,5.12-12.557-1.237-20.3,6.668-21.347,19.752s-8.687,12.8-19.526,15.633c-13.02,3.4-7,18.014-4.288,24.239,2.2,5.03,1.684,19-6.775,21.077-6.084,1.491-4.156,8.7-2.594,12.634l28.826,1.262c-.921-3.847-1.588-10.1,2.847-14.455,5.658-5.554,26.53-1.663,26.007-16.342-.384-10.752-13.389-19.059,9.768-26.595s40.9-35.807,22.23-46.2a10.189,10.189,0,0,0-5.056-1.32c-4.393,0-8.9,2.6-13.633,5.195" transform="translate(-412.705 -198.182)" fill="none"/></clipPath><clipPath id="h"><rect width="94.653" height="96.117" fill="none"/></clipPath><clipPath id="i"><path d="M399.3,314.236c7.5,2.6,6.753,15.96,6.753,15.96s4.018-.144,5.741,0c-1.12-18.376-11.659-21.932-11.659-21.932a30.523,30.523,0,0,1-.835,5.972" transform="translate(-399.298 -308.264)" fill="#682458"/></clipPath><clipPath id="j"><path d="M254.791,294.045q.394,5.019.788,10.037c5.208-1.5,10.9-3.245,17.027-3.566a73.954,73.954,0,0,1,21.757,2.123,7.736,7.736,0,0,0,1.184-3.093,10.874,10.874,0,0,0-.448-5.272,63.782,63.782,0,0,0-10.747-2.96,50.745,50.745,0,0,0-9.124-.819,66.634,66.634,0,0,0-20.437,3.548" transform="translate(-254.791 -290.497)" fill="none"/></clipPath><linearGradient id="k" x1="-4.851" y1="6.406" x2="-4.835" y2="6.406" gradientUnits="objectBoundingBox"><stop offset="0" stop-color="#311944"/><stop offset="0.1" stop-color="#311944"/><stop offset="0.267" stop-color="#361b47"/><stop offset="0.48" stop-color="#462050"/><stop offset="0.718" stop-color="#602a5f"/><stop offset="0.973" stop-color="#843773"/><stop offset="1" stop-color="#893976"/></linearGradient><clipPath id="l"><path d="M253.4,304c-.388.178-.475,1.688-.491,2.9a20.188,20.188,0,0,0,.686,5.865c.243.848.406,1.287.594,1.273.234-.017.39-.712.491-1.17a15.747,15.747,0,0,0,.193-4.513,10.484,10.484,0,0,0-.4-2.819c-.2-.566-.636-1.552-.991-1.552a.183.183,0,0,0-.078.017" transform="translate(-252.907 -303.984)" fill="none"/></clipPath><linearGradient id="m" x1="-6.3" y1="37.523" x2="-6.273" y2="37.523" xlink:href="#k"/><clipPath id="n"><path d="M216.253,332.36c2.184.433,7.493,1.727,7.493,1.727s-3.462-11.753,3.065-17.179a13,13,0,0,0,.135-3.992,12.457,12.457,0,0,0-.78-3.083c-2.771,1.656-8.8,7.229-9.913,22.526" transform="translate(-216.253 -309.834)" fill="#682458"/></clipPath><clipPath id="o"><path d="M43.758,390.3H54.637s-.072-5.047-1.506-6.172c-9.106,0-9.373,6.172-9.373,6.172" transform="translate(-43.758 -384.124)" fill="none"/></clipPath><linearGradient id="p" x1="-0.971" y1="31.574" x2="-0.948" y2="31.574" gradientUnits="objectBoundingBox"><stop offset="0" stop-color="#311944"/><stop offset="0.1" stop-color="#311944"/><stop offset="0.696" stop-color="#6e2f66"/><stop offset="1" stop-color="#893976"/></linearGradient><clipPath id="q"><path d="M19.025,401.41,10.287,524.978a6.8,6.8,0,0,0,2.619,6.31l22.954,7.73,15.1-59.743L26.08,399.18Z" transform="translate(-10.253 -399.18)" fill="#e4e4e4"/></clipPath><clipPath id="r"><rect width="31.935" height="139.838" fill="#682458"/></clipPath><clipPath id="s"><path d="M75.693,479.275,50.813,399.18l-7.055,2.23c1.737,7.069,2.57,18.58,2.962,24.988,1.668,27.27,7.207,34.858,4.524,53.882-2.231,15.818-7.1,17.965-6.678,28.607.464,11.591,6.734,21.3,14.188,28.929l1.839,1.2Z" transform="translate(-43.758 -399.18)" fill="#682458"/></clipPath><clipPath id="t"><path d="M80.483,539.018l148.6-12.88L207.54,399.18H70.7Z" transform="translate(-70.703 -399.18)" fill="none"/></clipPath><linearGradient id="u" x1="-0.08" y1="1.536" x2="-0.079" y2="1.536" xlink:href="#p"/><clipPath id="v"><rect width="143.027" height="139.259" fill="none"/></clipPath><clipPath id="w"><path d="M250.828,399.18h-46.1a92.234,92.234,0,0,1-4.041,10.273c-20.615,44.316-67.808,49.9-66.956,57.183,1.275,10.886,106.366-4.566,109.05,10.392,1.3,7.221-20.9,23.635-44.087,29.85-27.766,7.441-48.17-1.937-61.74,14.782-4.6,5.661-6.623,12.293-7.612,16.778l143.027-12.3Z" transform="translate(-129.344 -399.18)" fill="none"/></clipPath><linearGradient id="x" x1="-0.033" y1="1.291" x2="-0.032" y2="1.291" gradientUnits="objectBoundingBox"><stop offset="0" stop-color="#311944"/><stop offset="1" stop-color="#893976"/></linearGradient><clipPath id="y"><path d="M52.736,385.373a9.56,9.56,0,0,0-1.33,1.019l1.079-.413a4.311,4.311,0,0,1,5.024,2.06c1.1,2.308,1.494,7.649,1.734,10.294.683,7.525,4.883,54.349,4.883,54.349.315,3.948,3.095,6.938,6.38,6.862L197.792,452.4a4.4,4.4,0,0,0,2.719-1.007,6.471,6.471,0,0,0,2.03-6.029L196.093,389.6c-.545-3.205-2.883-5.506-5.594-5.506H58.777c-.336,0-.7-.01-1.093-.01a8.7,8.7,0,0,0-4.948,1.287" transform="translate(-51.406 -384.086)" fill="none"/></clipPath><linearGradient id="z" x1="-0.078" y1="2.869" x2="-0.076" y2="2.869" xlink:href="#p"/><clipPath id="aa"><path d="M58.985,384.366a5.437,5.437,0,0,0-1.816.8s4.321-1.113,5.956,2.774c1,2.373,1.494,7.649,1.735,10.294.683,7.525,4.883,54.349,4.883,54.349.315,3.948,3.095,6.938,6.38,6.862l128.72-2.985a4.394,4.394,0,0,0,2.719-1.007,6.472,6.472,0,0,0,2.03-6.029l-7.883-59.921c-.545-3.205-2.883-5.506-5.594-5.506H64.394c-.671,0-1.4-.043-2.169-.043a11.409,11.409,0,0,0-3.239.406" transform="translate(-57.169 -383.96)" fill="none"/></clipPath><linearGradient id="ab" x1="-0.075" y1="2.67" x2="-0.073" y2="2.67" xlink:href="#k"/><clipPath id="ac"><rect width="152.522" height="73.817" fill="#682458"/></clipPath><clipPath id="ad"><path d="M209.592,449.429l-7.883-59.921c-.545-3.205-2.883-5.506-5.594-5.506H64.394a17.642,17.642,0,0,0-5.408.363,5.441,5.441,0,0,0-1.816.8s4.321-1.113,5.956,2.774a10.544,10.544,0,0,1,.434,1.323c12.509.534,25.019.149,37.528,1.021,24.728,1.677,49.735,1.677,73.074,12.408,7.465,3.433,12.583,15.765,10.558,21.462-1.46,4.108-6.444,3.783-8.183,9.174-1.829,5.67,2.557,9.522.717,13.5-1.928,4.17-7.784,2.184-17.262,5.16a43.981,43.981,0,0,0-11.73,5.784l56.581-1.312a4.394,4.394,0,0,0,2.72-1.007,6.472,6.472,0,0,0,2.03-6.029" transform="translate(-57.169 -383.96)" fill="#682458"/></clipPath><clipPath id="ae"><path d="M323.811,615.888c-1.72.028-3.077,1.767-3,3.864l.707,19.83c.075,2.1,1.551,3.689,3.266,3.539l1.7-.15,16.118-4.167a5.085,5.085,0,0,1,1.2.068c.931.136,1.557.273,1.507-1.145l-.663-18.6c-.07-1.967-1.374-1.082-2.922-1.057l-16.2-2.214Z" transform="translate(-320.806 -615.86)" fill="none"/></clipPath><linearGradient id="af" x1="-2.196" y1="5.022" x2="-2.188" y2="5.022" gradientUnits="objectBoundingBox"><stop offset="0" stop-color="#ffc444"/><stop offset="0.996" stop-color="#f36f56"/><stop offset="1" stop-color="#f36f56"/></linearGradient><clipPath id="ag"><path d="M346.253,614.863l-17.9.289c-1.72.027-3.077,1.767-3,3.864l.707,19.83c.075,2.1,1.551,3.689,3.266,3.539l17.858-1.57c1.544-.136,2.74-1.855,2.67-3.823l-.663-18.6c-.07-1.952-1.364-3.532-2.9-3.532h-.036" transform="translate(-325.345 -614.863)" fill="none"/></clipPath><linearGradient id="ah" x1="-2.336" y1="5.304" x2="-2.328" y2="5.304" xlink:href="#af"/><clipPath id="ai"><path d="M141.147,433.146l9.816,0V478.27c0,29.551-21.475,54.126-49.3,56.414l-75.827,6.4,32.147,8.874L113,544.925c31.641-2.9,55.932-30.941,55.932-64.571V432.826l8.851-.541-19.9-43.693Z" transform="translate(-25.837 -388.592)" fill="none"/></clipPath><linearGradient id="aj" x1="0.059" y1="1.325" x2="0.06" y2="1.325" gradientUnits="objectBoundingBox"><stop offset="0" stop-color="#fcb148"/><stop offset="0.052" stop-color="#fdb946"/><stop offset="0.143" stop-color="#fec144"/><stop offset="0.318" stop-color="#ffc444"/><stop offset="0.484" stop-color="#fdb946"/><stop offset="0.773" stop-color="#f99c4c"/><stop offset="0.866" stop-color="#f8924f"/><stop offset="1" stop-color="#f8924f"/></linearGradient><clipPath id="ak"><rect width="139.238" height="161.361" fill="none"/></clipPath><clipPath id="al"><path d="M170.718,965.784a10.08,10.08,0,0,0-.607,1.692v.007a.886.886,0,0,0,.9.843,27.639,27.639,0,0,0,5.238-.682c1.861-.578-4.529-2.075-4.529-2.075Z" transform="translate(-170.11 -965.569)" fill="none"/></clipPath><linearGradient id="am" x1="-5.443" y1="24.318" x2="-5.411" y2="24.318" gradientUnits="objectBoundingBox"><stop offset="0" stop-color="#26264f"/><stop offset="0.004" stop-color="#26264f"/><stop offset="1" stop-color="#444b8c"/></linearGradient><clipPath id="an"><path d="M172.589,957.326l.1,2.45s.372.592,1.287-.16l.493-2.6Z" transform="translate(-172.589 -957.012)" fill="none"/></clipPath><linearGradient id="ao" x1="-19.738" y1="22.642" x2="-19.623" y2="22.642" xlink:href="#af"/><clipPath id="ap"><path d="M169.6,780.993a8.6,8.6,0,0,0-2.735,2.425c-2.841,3.885-1.1,8.1-1.241,14.795-.2,9.284-3.753,10.481-3.344,19.28a33.409,33.409,0,0,0,1.906,9.613l3.442-.457a75.829,75.829,0,0,1,6.275-24.15c4.536-10.066,9.673-15.239,7.624-19.141-1.122-2.138-4.186-3.481-7.323-3.481a9.555,9.555,0,0,0-4.6,1.116" transform="translate(-162.25 -779.877)" fill="none"/></clipPath><clipPath id="aq"><rect width="18.569" height="47.229" fill="none"/></clipPath><clipPath id="ar"><path d="M184.842,783.358c-1.694-3.227-7.807-4.643-11.928-2.365-.152.084-.294.173-.434.262,3,5.09,3.049,8.581,2.38,10.942-.685,2.416-2.117,3.616-2.453,7.106-.374,3.883,1.191,4.542.592,7.7-.754,3.972-3.415,3.891-4.145,7.783-.694,3.7,1.389,5.479.085,7.867a5.024,5.024,0,0,1-2.2,2.019c.253.926.518,1.743.764,2.435l3.442-.457a75.834,75.834,0,0,1,6.276-24.15c4.536-10.066,9.672-15.238,7.624-19.141" transform="translate(-166.736 -779.877)" fill="#1e5272"/></clipPath><clipPath id="as"><path d="M244.735,969.443a10.064,10.064,0,0,0-.607,1.692v.008a.885.885,0,0,0,.9.842,27.627,27.627,0,0,0,5.238-.682c1.861-.578-4.529-2.075-4.529-2.075Z" transform="translate(-244.127 -969.228)" fill="none"/></clipPath><linearGradient id="at" x1="-7.816" y1="24.021" x2="-7.784" y2="24.021" xlink:href="#am"/><clipPath id="au"><path d="M244.5,961.03l.622,2.5s.372.591,1.287-.16l-.026-2.658Z" transform="translate(-244.501 -960.716)" fill="none"/></clipPath><linearGradient id="av" x1="-27.608" y1="22.017" x2="-27.495" y2="22.017" xlink:href="#af"/><clipPath id="aw"><path d="M218.509,775.045c-1.935,1.667-4.092,1.438-6,1.209-1.638-.2-3.094-.394-4.067.61-2.759,2.846.726,12.9,2.519,18.072a18.793,18.793,0,0,1,.877,3.459,22.27,22.27,0,0,1,.06,5.56,39.8,39.8,0,0,0,.61,8.487,27.69,27.69,0,0,0,4.054,10.261l3.13-.546c.038-4.522.158-11.888.592-21.01.709-14.917,1.971-28.527.423-28.832a.234.234,0,0,0-.048-.005c-.47,0-.634,1.426-2.151,2.733" transform="translate(-207.417 -772.312)" fill="none"/></clipPath><clipPath id="ax"><path d="M123.946,663.759c-1.641,1.854-5.667,6.4-3.743,10.391,1.854,3.844,8.749,6.158,16.925,4.875l1.651-2.089c-4.518-.462-7.647-2.579-7.843-4.788-.172-1.93,1.936-3.485,2.993-4.265,3.6-2.658,8.145-2.6,9.7-2.524l2.66-10.731c-3.548.212-15.407,1.295-22.344,9.132" transform="translate(-119.693 -654.627)" fill="#e14778"/></clipPath><clipPath id="ay"><path d="M306.316,595.45c.437,1.818-.79,2.182-.79,2.182l2.465,1.86,1.043-.482-1.5-1.083a8.256,8.256,0,0,1-.422-2.476c-.021-.773-.36-1.236-.613-1.236-.228,0-.386.375-.179,1.236" transform="translate(-305.526 -594.214)" fill="none"/></clipPath><linearGradient id="az" x1="-22.804" y1="33.258" x2="-22.729" y2="33.258" xlink:href="#af"/><clipPath id="ba"><path d="M231.832,629.405q-.063.14-.125.282c-.076.176-.13.306-.134.316a5.255,5.255,0,0,1-1.113,1.421c-1.236,1.054-4.084,1.68-4.06,2.143.022.43,2.52.725,4.991.672,1.746-.038,4.713-.277,4.766-.9s-2.921-.9-2.571-2.973c.035-.205,1.358-.274,1.76-.991a3.189,3.189,0,0,0,.2-2.3c-.262-.987-.355-1.136-.544-1.342l-.267-.269-.034-.023a3.745,3.745,0,0,0-1.012-.311h-.005c-.469,0-1.374,1.693-1.855,4.274" transform="translate(-226.4 -625.131)" fill="#ffb882"/></clipPath><clipPath id="bb"><path d="M254.242,636.184a.647.647,0,0,0,.5.795c.341.01.288-.572.114-.994a.239.239,0,0,0-.225-.166.455.455,0,0,0-.392.365" transform="translate(-254.225 -635.819)" fill="#ffb882"/></clipPath><clipPath id="bc"><path d="M193.274,611.1c2.851,2.118,4.253,4.854,3.526,6.723-.662,1.7-2.926,2.27-4.9,2.766-2.806.7-4.433.359-8.856.166a79.416,79.416,0,0,0-9.1.029c-4.874.343-7.308.552-8.838,1.663-3.11,2.258-1.689,5.346-4.766,15.283-1.8,5.8-2.693,8.7-4.653,11.167-2.183,2.748-4.425,4.086-4.794,7.162a7.172,7.172,0,0,0,1.466,5.3c2.126,2.383,5.718,2.145,9.136,1.918,3.7-.246,3.667-.982,7.839-1.579a36.745,36.745,0,0,1,6.2-.337c2.246.033,3.607.065,4.913-1.129.461-.422.889-.972,2.082-5.08,1.249-4.3,1.774-7.117,2.528-10.47,1.339-5.951,2.037-8.956,3.44-10.391,1.854-1.9,2.8-1.135,7.219-3.642,3.947-2.238,6.568-3.724,7.741-6.736a10.728,10.728,0,0,0-1.74-10A11.593,11.593,0,0,0,195,609.7l-1.721,1.4" transform="translate(-150.847 -609.699)" fill="none"/></clipPath><clipPath id="bd"><rect width="53.189" height="44.532" fill="none"/></clipPath><clipPath id="be"><path d="M203.873,644.766a11.006,11.006,0,0,1-1.885,3.9c-3.039,3.96-8.527,5.137-11.392,5.752-5.2,1.116-8.363.243-9.362,2.143-.94,1.789,1.519,3.219,1.241,6.429-.336,3.87-4.1,4-6.429,8.911-2.392,5.046-.3,8.86-2.707,10.264-1.631.95-2.783-.682-6.429-1.015-6.643-.607-10.041,4.15-13.2,2.482-.8-.421-1.736-1.336-2.293-3.563a6.173,6.173,0,0,0-.527,1.871,7.172,7.172,0,0,0,1.466,5.3c2.126,2.383,5.718,2.145,9.136,1.918,3.7-.246,3.667-.982,7.839-1.579,6.537-.936,8.9.554,11.11-1.466.461-.422.889-.972,2.082-5.08,1.249-4.3,1.774-7.117,2.528-10.47,1.339-5.952,2.037-8.956,3.44-10.391,1.854-1.9,2.8-1.135,7.219-3.642,3.947-2.238,6.568-3.724,7.74-6.736a9.35,9.35,0,0,0,.419-5.031" transform="translate(-150.847 -644.766)" fill="#b42b56"/></clipPath></defs><rect width="320" height="320" fill="#fff" opacity="0"/><g transform="translate(54 52.551)"><path d="M107.8,217.5C54.272,215.878,7.908,255.817.9,308.223c-7.659,57.3,34.494,108.854,86.361,117.112,64.514,10.271,127.089-49.147,121.471-113.606C204.5,263.165,162.206,219.155,107.8,217.5" transform="translate(-0.001 -212.409)" fill="#ede9e5"/><g transform="translate(128.535 46.453)"><g clip-path="url(#a)"><rect width="121.082" height="121.41" transform="translate(-43.851 39.638) rotate(-42.113)" fill="#e14778"/></g></g><g transform="translate(128.536 46.453)"><g clip-path="url(#b)"><g transform="translate(5.93 -1.948)" opacity="0.5" style="mix-blend-mode:soft-light;isolation:isolate"><g clip-path="url(#c)"><path d="M517.619,498.78l.346.113c.07-.214,7.156-21.612,20.577-40.707,12.364-17.591,32.792-36.77,59.893-28.24l.109-.347a42.5,42.5,0,0,0-34.974,3.812c-8.9,5.054-17.423,13.321-25.33,24.571-13.45,19.139-20.551,40.582-20.621,40.8" transform="translate(-516.563 -411.943)" fill="#beb8f2"/><path d="M675.778,392.482l.338.133c4.416-11.264,16.574-24.068,16.7-24.2l-.263-.251c-.123.129-12.33,12.985-16.771,24.315" transform="translate(-633.313 -368.167)" fill="#beb8f2"/><path d="M704.515,444.517a30.282,30.282,0,0,1,22.775,7.9l.265-.248a30.654,30.654,0,0,0-23.062-8.012Z" transform="translate(-654.51 -424.215)" fill="#beb8f2"/><path d="M565.854,571.434c11.75-13.121,34.239-5.692,34.452-5.6l.164-.324c-.2-.109-23.033-7.555-34.887,5.682Z" transform="translate(-551.969 -512.229)" fill="#beb8f2"/><path d="M569.117,504.5l.348.1c3.24-10.762-3.636-23.112-3.706-23.236l-.316.179c.069.123,6.869,12.34,3.674,22.952" transform="translate(-551.866 -451.734)" fill="#beb8f2"/><path d="M522.622,670.383c3.644-5.612,14.533-5.709,14.643-5.709v-.363c-.455,0-11.2.1-14.947,5.874Z" transform="translate(-520.031 -586.776)" fill="#beb8f2"/><path d="M517.787,618.7l.344.117c1.706-5.008-2.449-13.875-3.814-16.788-.193-.412-.359-.767-.377-.837l-.354.083a8.443,8.443,0,0,0,.4.908c1.35,2.881,5.458,11.648,3.8,16.517" transform="translate(-513.586 -540.184)" fill="#beb8f2"/></g></g></g></g><g transform="translate(105.063 0.127)"><g clip-path="url(#d)"><path d="M0,0H106.81V77.519H0Z" transform="translate(-28.357 87.725) rotate(-73.058)" fill="#fd7e50"/></g></g><g transform="translate(106.551 0.127)"><g clip-path="url(#e)"><g transform="translate(0.468 -2.89)" opacity="0.5" style="mix-blend-mode:soft-light;isolation:isolate"><g clip-path="url(#f)"><path d="M447.347,286.124h-.3c-.023-1.658-.025-3.33,0-4.971a161.577,161.577,0,0,1,4.077-34.721,131.975,131.975,0,0,1,9.03-26.152,113.577,113.577,0,0,1,10.717-18.218,94.056,94.056,0,0,1,8.958-10.66c.542-.552,1.13-1.088,1.7-1.606.757-.691,1.54-1.4,2.221-2.162l.231.179c-.69.768-1.478,1.487-2.241,2.182-.565.516-1.15,1.049-1.687,1.6a93.751,93.751,0,0,0-8.932,10.628,113.315,113.315,0,0,0-10.691,18.175,131.7,131.7,0,0,0-9.011,26.1,161.321,161.321,0,0,0-4.07,34.666c-.021,1.638-.019,3.308,0,4.964" transform="translate(-437.007 -187.634)" fill="#fcfdfe"/><path d="M470.128,263.809l-.287-.085c3.831-11.378-3.878-30.615-3.957-30.808l.281-.1c.079.194,7.824,19.521,3.963,30.989" transform="translate(-450.926 -220.988)" fill="#fcfdfe"/><path d="M451.857,431.162l-.3-.053c1.625-8.021,16.263-15.826,16.41-15.9l.15.242c-.146.077-14.666,7.819-16.265,15.715" transform="translate(-440.354 -355.622)" fill="#fcfdfe"/><path d="M425.2,434.3l-.3,0c.043-5.335-2.976-12.653-8.5-20.607-.278-.4-.278-.4-.278-.453h.15l.139-.051c.015.029.12.18.242.355,5.555,8,8.591,15.372,8.548,20.76" transform="translate(-414.19 -354.129)" fill="#fcfdfe"/><path d="M447.451,527.17l-.287-.084c1.86-5.6,10.595-8.78,10.683-8.811l.11.26c-.087.031-8.688,3.16-10.506,8.635" transform="translate(-437.107 -431.707)" fill="#fcfdfe"/><path d="M418.646,527.975c-1.8-4.448-5.039-8.571-9.893-12.605l.2-.207c4.892,4.066,8.154,8.225,9.975,12.716Z" transform="translate(-408.753 -429.409)" fill="#fcfdfe"/><path d="M529.39,209.338l-.281-.1a73.11,73.11,0,0,0,3.946-15.616c.086-.563.117-.761.141-.828l.285.089c-.017.052-.067.373-.129.781a73.362,73.362,0,0,1-3.962,15.675" transform="translate(-497.598 -191.442)" fill="#fcfdfe"/><path d="M507.736,273.743l-.238-.171c4.108-4.912,17.468-6.38,18.034-6.44l.036.276c-.137.015-13.8,1.515-17.833,6.335" transform="translate(-481.645 -246.316)" fill="#fcfdfe"/></g></g></g></g><path d="M434.448,328.187c-1.23-.2.456-6.525-2.844-14.817-.824-2.072-10.092.662-13.679-14.338-.414-1.73-3.549-.254-5.324-.381-1.385-4.047-1.941-8.118,3.506-9.452,8.459-2.072,8.97-16.047,6.775-21.077-2.717-6.225-8.733-20.84,4.287-24.239,10.839-2.83,18.484-2.55,19.527-15.633s8.79-20.989,21.346-19.752c13.214,1.3,24.431-14.96,35.148-9,18.675,10.394.926,38.666-22.23,46.2s-10.151,15.842-9.768,26.594a18.588,18.588,0,0,1-.607,4.353c-2.933,11.1-14.69,12.611-23.379,21.477-11.851,12.09-10.687,30.4-12.759,30.06" transform="translate(-303.884 -198.182)" fill="#37af79"/><g transform="translate(108.053 0)"><g clip-path="url(#g)"><g transform="translate(9.182 3.914)" opacity="0.5" style="mix-blend-mode:soft-light;isolation:isolate"><g clip-path="url(#h)"><path d="M475.762,309.25l-.609-.141c10.106-41.981,41.786-78.757,82.678-95.976l.262.541c-40.719,17.146-72.266,53.769-82.331,95.575" transform="translate(-467.985 -213.133)" fill="#fcfdfe"/><path d="M463.145,406.138l-.625-.025c.436-16.973-14.591-30.812-14.743-30.95l.429-.423c.154.139,15.382,14.157,14.939,31.4" transform="translate(-447.777 -332.428)" fill="#fcfdfe"/><path d="M483.9,505.992l-.543-.3c9.03-14.8,42.149-15.636,42.482-15.643l.024.591c-.33.007-33.106.833-41.964,15.353" transform="translate(-474.045 -417.545)" fill="#fcfdfe"/><path d="M587.117,265.748l-.567-.258c6.067-12.3-2.083-31.909-2.166-32.106l.579-.211c.084.2,8.332,20.051,2.154,32.574" transform="translate(-548.618 -227.926)" fill="#fcfdfe"/><path d="M672,271.565l-.314-.516c14.223-7.59,35.813-2.23,36.029-2.175l-.152.571c-.214-.055-21.562-5.351-35.563,2.12" transform="translate(-613.064 -252.885)" fill="#fcfdfe"/></g></g></g></g><g transform="translate(104.543 28.821)"><g clip-path="url(#i)"><rect width="22.72" height="13.936" transform="translate(-1.466 21.833) rotate(-86.158)" fill="#682458"/></g></g><g transform="translate(66.708 24.17)"><g clip-path="url(#j)"><rect width="16.317" height="42.029" transform="translate(-0.908 13.524) rotate(-86.157)" fill="url(#k)"/></g></g><g transform="translate(66.215 27.701)"><g clip-path="url(#l)"><rect width="9.892" height="6.657" transform="translate(-4.226 7.82) rotate(-61.803)" fill="url(#m)"/></g></g><g transform="translate(56.619 29.233)"><g clip-path="url(#n)"><rect width="24.929" height="12.5" transform="matrix(0.067, -0.998, 0.998, 0.067, -1.622, 24.145)" fill="#682458"/></g></g><g transform="translate(11.456 48.683)"><g clip-path="url(#o)"><rect width="11.486" height="7.319" transform="matrix(0.994, -0.109, 0.109, 0.994, -0.667, 0.073)" fill="url(#p)"/></g></g><g transform="translate(2.684 52.625)"><g clip-path="url(#q)"><rect width="142.079" height="103.776" transform="matrix(0.486, -0.874, 0.874, 0.486, -59.644, 106.743)" fill="#893976"/></g></g><g transform="translate(11.456 52.625)" opacity="0.3" style="mix-blend-mode:multiply;isolation:isolate"><g clip-path="url(#r)"><g transform="translate(0)"><g clip-path="url(#s)"><rect width="99.05" height="136.46" transform="matrix(0.859, -0.512, 0.512, 0.859, -61.514, 36.683)" fill="#682458"/></g></g></g></g><g transform="translate(18.511 52.625)"><g clip-path="url(#t)"><rect width="168.332" height="151.219" transform="matrix(0.997, -0.074, 0.074, 0.997, -10.362, 0.772)" fill="url(#u)"/></g></g><g transform="translate(33.864 52.625)" opacity="0.2" style="mix-blend-mode:multiply;isolation:isolate"><g clip-path="url(#v)"><g clip-path="url(#w)"><rect width="197.607" height="198.292" transform="translate(-67.328 87.383) rotate(-52.386)" fill="url(#x)"/></g></g></g><g transform="translate(13.459 48.673)"><g clip-path="url(#y)"><rect width="154.338" height="81.356" transform="matrix(0.999, -0.039, 0.039, 0.999, -2.929, 0.114)" fill="url(#z)"/></g></g><g transform="translate(16.426 50.656)"><g clip-path="url(#aa)"><rect width="158.905" height="88.812" transform="translate(-6.671 0.594) rotate(-5.085)" fill="url(#ab)"/></g></g><g transform="translate(14.968 48.64)" opacity="0.2" style="mix-blend-mode:multiply;isolation:isolate"><g clip-path="url(#ac)"><g transform="translate(0 0)"><g clip-path="url(#ad)"><rect width="159.95" height="90.18" transform="translate(-8 0.691) rotate(-6.243)" fill="#682458"/></g></g></g></g><g transform="translate(83.992 109.355)"><g clip-path="url(#ae)"><rect width="35.701" height="34.523" transform="translate(-11.326 21.529) rotate(-62.403)" fill="url(#af)"/></g></g><g transform="translate(85.181 109.094)"><g clip-path="url(#ag)"><rect width="34.359" height="32.529" transform="translate(-8.85 24.531) rotate(-70.311)" fill="url(#ah)"/></g></g><path d="M159.752,390.556l-1.871-1.963-2.3,12.253-14.433,32.3,1.6,1.963,9.973,0v45.129c0,29.551-21.817,54.126-50.084,56.414l-76.8,4.434.144,1.444L57.8,552.014l56.357-5.125c32.145-2.9,56.823-30.941,56.823-64.571V434.79l8.992-.541Z" transform="translate(-19.073 -338.74)" fill="#c17727"/><g transform="translate(6.764 49.853)"><g clip-path="url(#ai)"><rect width="187.576" height="180.146" transform="matrix(0.192, -0.981, 0.981, 0.192, -30.459, 155.392)" fill="url(#aj)"/></g></g><g transform="translate(6.765 49.853)" opacity="0.3" style="mix-blend-mode:soft-light;isolation:isolate"><g clip-path="url(#ak)"><path d="M163.963,482.831c-2.6-12.109-8.74-17.773-8.48-32.453.2-11.51,4.133-16.783,6.511-26.013a60.956,60.956,0,0,0,.984-24.583l-5.1-11.19-16.733,44.553,9.816,0V478.27c0,29.551-21.475,54.126-49.3,56.414l-75.827,6.4,32.146,8.874L113,544.926c22.766-2.085,41.727-17.189,50.573-38.024a56.7,56.7,0,0,0,.391-24.07" transform="translate(-25.838 -388.593)" fill="#f4f7fa"/></g></g><path d="M25.837,944.427,57.984,953.3l133.689-12.371-20.432-8.769Z" transform="translate(-19.073 -739.992)" fill="#d15833"/><path d="M557.652,918.262l29.874,12.664,32.81-10.57v-2.094l-26.11,2.094-36.573-4.187Z" transform="translate(-411.649 -728.187)" fill="#d15833"/><path d="M25.837,936.431,57.984,945.3l133.689-12.371-20.432-8.769Z" transform="translate(-19.073 -734.09)" fill="#fd7e50"/><path d="M557.652,916.168l29.874,12.664,32.81-10.57Z" transform="translate(-411.649 -728.187)" fill="#fd7e50"/><g transform="translate(44.538 200.915)"><g clip-path="url(#al)"><rect width="8.165" height="3.229" transform="translate(-0.18 0.009) rotate(-3.215)" fill="url(#am)"/></g></g><g transform="translate(45.187 198.675)"><g clip-path="url(#an)"><rect width="2.279" height="3.56" transform="translate(-0.407 0.05) rotate(-7.016)" fill="url(#ao)"/></g></g><g transform="translate(42.48 152.298)"><g clip-path="url(#ap)"><rect width="21.705" height="47.229" transform="translate(-0.376)" fill="#3a77a2"/></g></g><g transform="translate(43.654 152.298)" opacity="0.3" style="mix-blend-mode:multiply;isolation:isolate"><g clip-path="url(#aq)"><g transform="translate(0 0)"><g clip-path="url(#ar)"><rect width="20.154" height="48.391" transform="translate(0 -1.161)" fill="#1e5272"/></g></g></g></g><g transform="translate(63.917 201.873)"><g clip-path="url(#as)"><rect width="8.165" height="3.229" transform="translate(-0.18 0.009) rotate(-3.216)" fill="url(#at)"/></g></g><g transform="translate(64.014 199.645)"><g clip-path="url(#au)"><rect width="2.311" height="3.618" transform="matrix(0.993, -0.122, 0.122, 0.993, -0.413, 0.051)" fill="url(#av)"/></g></g><g transform="translate(54.305 150.317)"><g clip-path="url(#aw)"><path d="M0,0H16.573V50.392H0Z" transform="translate(-1.733)" fill="#3a77a2"/></g></g><g transform="translate(31.337 119.505)"><g clip-path="url(#ax)"><rect width="28.011" height="25.681" transform="translate(-1.414)" fill="#e14778"/></g></g><path d="M321.986,565.876c1.271,1.977,1.178,4.3-.206,5.19s-3.537.009-4.807-1.968-1.178-4.3.206-5.19,3.537-.009,4.807,1.968" transform="translate(-233.322 -467.898)" fill="#fff"/><path d="M265.968,584.471l13.794-14.132a.8.8,0,0,1,.689-.236,4.521,4.521,0,0,1,4.123,4.557.815.815,0,0,1-.412.736l-17.334,9.8Z" transform="translate(-196.333 -472.722)" fill="#d8dee8"/><path d="M266.286,623.773a.741.741,0,0,1-.04,1.014c-.27.174-.691,0-.939-.384a.741.741,0,0,1,.04-1.014c.27-.174.691,0,.939.385" transform="translate(-195.716 -512.012)" fill="#fff"/><g transform="translate(79.992 103.688)"><g clip-path="url(#ay)"><rect width="3.508" height="5.277" fill="url(#az)"/></g></g><g transform="translate(59.275 111.783)"><g clip-path="url(#ba)"><rect width="13.24" height="13.37" transform="translate(-4.433 5.823) rotate(-52.868)" fill="#ffb882"/></g></g><path d="M246.168,615.345a3.062,3.062,0,0,1-1,1.638,1.367,1.367,0,0,0-.363.244.415.415,0,0,0-.068.083c-.294.458.358,1.237.151,1.424-.151.135-.638-.212-.736-.087s.29.5.184.64c-.081.107-.33-.069-.548.071-.109.07-.1.148-.26.4a2.589,2.589,0,0,1-.284.381c-.386.4-1.2.382-1.307.16-.029-.062.017-.1.017-.281a1.428,1.428,0,0,0-.068-.385,3.715,3.715,0,0,0-.76-.966,2.641,2.641,0,0,1-.71-1.352c-.008-.059-.012-.1-.014-.133a3.032,3.032,0,0,1,.55-1.953c.654-.778,1.545-.118,2.569-.8,1.182-.784.957-2.3,1.5-2.33.6-.033,1.5,1.775,1.142,3.24" transform="translate(-177.458 -503.732)" fill="#4c2754"/><g transform="translate(66.56 114.581)"><g clip-path="url(#bb)"><rect width="1.495" height="1.448" transform="matrix(0.604, -0.797, 0.797, 0.604, -0.632, 0.744)" fill="#ffb882"/></g></g><g transform="translate(39.494 107.742)"><g clip-path="url(#bc)"><path d="M0,0H76.333V76.349H0Z" transform="translate(-27.028 30.901) rotate(-49.128)" fill="#e14778"/></g></g><g transform="translate(39.494 116.923)" opacity="0.3" style="mix-blend-mode:multiply;isolation:isolate"><g clip-path="url(#bd)"><g transform="translate(0)"><g clip-path="url(#be)"><rect width="69.003" height="69.894" transform="translate(-22.485 25.651) rotate(-49.128)" fill="#b42b56"/></g></g></g></g></g></svg>