<svg xmlns="http://www.w3.org/2000/svg" xmlns:xlink="http://www.w3.org/1999/xlink" width="320" height="320" viewBox="0 0 320 320"><defs><clipPath id="a"><path d="M1673.436,801.844l46.436,11.219,51.975-11.361-52.685-1.846Z" transform="translate(-1673.436 -799.856)" fill="#37af79"/></clipPath><clipPath id="b"><path d="M1647.367,890.546v.039a9.138,9.138,0,0,0,6.628,8.284l37.039,9.969,2.687-17.122-39.727-6.5a6.938,6.938,0,0,0-1.211-.108,5.237,5.237,0,0,0-5.417,5.439" transform="translate(-1647.367 -885.107)" fill="none"/></clipPath><linearGradient id="c" x1="-10.755" y1="2.182" x2="-10.748" y2="2.182" gradientUnits="objectBoundingBox"><stop offset="0" stop-color="#ffc444"/><stop offset="0.996" stop-color="#f36f56"/><stop offset="1" stop-color="#f36f56"/></linearGradient><clipPath id="d"><path d="M1801.712,900.161a7.428,7.428,0,0,0-6.83,7.151v2.475a5.908,5.908,0,0,0,6.83,5.844l59.847-6.683c-3.259-4.009-2.648-8.621,0-13.551Z" transform="translate(-1794.882 -895.397)" fill="none"/></clipPath><clipPath id="e"><path d="M1857.544,892.649l-59.867,4.669a9.728,9.728,0,0,0-8.941,9.355v.052a7.736,7.736,0,0,0,8.941,7.644l59.867-6.788a.791.791,0,0,0,.652-.795.605.605,0,0,0-.652-.649l-59.867,6.583a6.234,6.234,0,0,1-7.181-6.164V906.5a7.841,7.841,0,0,1,7.181-7.538l59.867-4.874a.761.761,0,0,0,.652-.774.632.632,0,0,0-.605-.672l-.047,0" transform="translate(-1788.736 -892.647)" fill="none"/></clipPath><linearGradient id="f" x1="-6.742" y1="4.371" x2="-6.739" y2="4.371" xlink:href="#c"/><clipPath id="g"><path d="M1647.367,816.718v.059c0,5.382,2.9,10.271,6.628,10.929l38.6,6.541,2.347-25.522-40.942-1.521q-.088,0-.176,0c-3.645,0-6.452,4.22-6.452,9.517" transform="translate(-1647.367 -807.201)" fill="#228f5e"/></clipPath><clipPath id="h"><path d="M1805.066,812.489a10.429,10.429,0,0,0-10.184,10.2V826.4a9.225,9.225,0,0,0,10.184,9.152l56.493-4.261c-3.25-6.042-2.657-12.959,0-20.347Z" transform="translate(-1794.882 -810.949)" fill="#fff"/></clipPath><clipPath id="i"><path d="M1857.544,807.014l-59.867,1.488c-4.889.122-8.941,6.054-8.941,13.222v.079c0,7.168,4.052,12.684,8.941,12.3l59.867-4.669c.36-.028.652-.536.652-1.133s-.292-1.061-.652-1.035l-59.867,4.362c-3.933.287-7.181-4.161-7.181-9.918v-.078c0-5.757,3.248-10.538,7.181-10.657l59.867-1.8c.36-.011.652-.5.652-1.1s-.287-1.066-.642-1.066h-.01" transform="translate(-1788.736 -807.014)" fill="#37af79"/></clipPath><clipPath id="j"><rect width="9.64" height="17.303" fill="none"/></clipPath><clipPath id="k"><rect width="107.986" height="130.131" fill="none"/></clipPath><clipPath id="l"><path d="M1623.549,913.235c0,3.5,5.362,6.341,11.977,6.341s11.977-2.839,11.977-6.341-5.362-6.341-11.977-6.341-11.977,2.839-11.977,6.341" transform="translate(-1623.549 -906.894)" fill="#1e5272"/></clipPath><clipPath id="m"><path d="M1608.515,894.324a5.689,5.689,0,0,0,3.224,5.141,30.351,30.351,0,0,0,13.943,2.576,31.325,31.325,0,0,0,11.122-1.94,5.783,5.783,0,0,0,3.537-5.356v-3.583l-31.826-3.314Z" transform="translate(-1608.515 -887.848)" fill="#3a77a2"/></clipPath><clipPath id="n"><rect width="31.824" height="10.307" fill="#1e5272"/></clipPath><clipPath id="o"><path d="M1608.516,893.52a6.294,6.294,0,0,0,1.678,1.172c3.08,1.469,23.254,4.751,28.12,2.922a6.561,6.561,0,0,0,1.7-.938,5.871,5.871,0,0,0,.33-1.931v-3.583l-31.826-3.314Z" transform="translate(-1608.516 -887.848)" fill="#1e5272"/></clipPath><clipPath id="p"><path d="M1601.108,874v.184a6.381,6.381,0,0,0,3.617,5.767c3.08,1.469,23.254,4.751,28.12,2.922a5.879,5.879,0,0,0,3.968-5.641v-.148a3.038,3.038,0,0,0-2.723-3.021l-29.629-3.085a3.034,3.034,0,0,0-3.352,3.021" transform="translate(-1601.108 -870.957)" fill="#3a77a2"/></clipPath><clipPath id="q"><rect width="34.662" height="8.423" fill="none"/></clipPath><clipPath id="r"><path d="M1635.537,874.06l-29.629-3.085a3.032,3.032,0,0,0-2.839,1.337,6.34,6.34,0,0,0,3.1,3.255c3.08,1.469,24.113,5.179,28.12,3.29a6.954,6.954,0,0,0,3.439-3.484,3.031,3.031,0,0,0-2.194-1.313" transform="translate(-1603.069 -870.958)" fill="none"/></clipPath><linearGradient id="s" x1="-12.109" y1="10.426" x2="-12.101" y2="10.426" gradientUnits="objectBoundingBox"><stop offset="0" stop-color="#26264f"/><stop offset="0.004" stop-color="#26264f"/><stop offset="1" stop-color="#444b8c"/></linearGradient><clipPath id="t"><path d="M1603.3,830.95a2.193,2.193,0,0,0-2.193,2.193v5.071a6.382,6.382,0,0,0,3.617,5.768c3.08,1.469,24.113,5.178,28.12,3.29a6.692,6.692,0,0,0,3.968-6.009v-8.121a2.193,2.193,0,0,0-2.193-2.193Z" transform="translate(-1601.108 -830.95)" fill="#3a77a2"/></clipPath><clipPath id="u"><path d="M1602.8,825.374c0,2.274,7.795,4.116,17.411,4.116s17.411-1.843,17.411-4.116-7.795-4.116-17.411-4.116-17.411,1.843-17.411,4.116" transform="translate(-1602.795 -821.258)" fill="#1e5272"/></clipPath><clipPath id="v"><path d="M1463.073,397.944c0,17.231,8.9,32.482,22.569,41.809a21.208,21.208,0,0,1,9.313,17.5v3.934a15.478,15.478,0,0,0,15.478,15.478H1523.7a15.478,15.478,0,0,0,15.478-15.478v-3.934a21.208,21.208,0,0,1,9.313-17.5c13.665-9.328,22.569-24.578,22.569-41.809,0-28.393-24.173-51.41-53.992-51.41s-53.992,23.017-53.992,51.41" transform="translate(-1463.073 -346.534)" fill="none"/></clipPath><clipPath id="w"><rect width="25.48" height="6.024" fill="none"/></clipPath><clipPath id="x"><path d="M1618.65,547.61a.736.736,0,0,0-.636.824l9.372,72.886a.737.737,0,0,0,.729.643.69.69,0,0,0,.095-.006.736.736,0,0,0,.636-.824l-9.372-72.886a.732.732,0,0,0-.824-.636" transform="translate(-1618.008 -547.603)" fill="none"/></clipPath><linearGradient id="y" x1="-5.306" y1="4.872" x2="-5.303" y2="4.872" gradientUnits="objectBoundingBox"><stop offset="0" stop-color="#ebeff2"/><stop offset="0.494" stop-color="#ebeff2"/><stop offset="1" stop-color="#fff"/></linearGradient><clipPath id="z"><path d="M1685.411,548.245l-9.372,72.886a.736.736,0,0,0,.636.824.676.676,0,0,0,.095.006.737.737,0,0,0,.729-.643l9.372-72.886a.736.736,0,0,0-.636-.824.751.751,0,0,0-.1-.007.735.735,0,0,0-.725.643" transform="translate(-1676.033 -547.602)" fill="none"/></clipPath><linearGradient id="aa" x1="-5.512" y1="4.872" x2="-5.508" y2="4.872" xlink:href="#y"/><clipPath id="ab"><path d="M1627,521.337a1.589,1.589,0,0,0-1.311.8l-2.711,4.68a.736.736,0,0,0,1.274.738l2.711-4.679a.116.116,0,0,1,.1-.064.135.135,0,0,1,.1.055l2.97,4.255a1.6,1.6,0,0,0,1.308.685h0a1.593,1.593,0,0,0,1.305-.689l2.06-2.977a.124.124,0,0,1,.1-.054.119.119,0,0,1,.1.058l2.345,3.516a1.59,1.59,0,0,0,2.694-.066l1.708-2.86a.117.117,0,0,1,.205,0l2.587,3.924a.736.736,0,1,0,1.229-.81l-2.587-3.924a1.59,1.59,0,0,0-2.7.058l-1.708,2.86a.115.115,0,0,1-.1.062c-.039.015-.078-.018-.1-.058l-2.345-3.515a1.589,1.589,0,0,0-2.635-.026l-2.06,2.978a.116.116,0,0,1-.1.054h0a.119.119,0,0,1-.1-.056l-2.97-4.255a1.586,1.586,0,0,0-1.3-.686l-.078,0" transform="translate(-1622.878 -521.335)" fill="none"/></clipPath><linearGradient id="ac" x1="-29.068" y1="8.301" x2="-29.05" y2="8.301" xlink:href="#y"/><clipPath id="ad"><rect width="89.392" height="121.77" fill="none"/></clipPath><clipPath id="ae"><path d="M1518.045,462.068c1.157-19.815,34.562-24.453,34.418-42.149-.088-10.9-13.362-18.993-16.2-20.614-20.886-11.946-46.594,1.849-51.9-7.914-1.322-2.431-.7-5.077-.349-6.584a14.117,14.117,0,0,1,3.533-6.339c-14.736,9.18-24.474,25.031-24.474,43.05,0,17.231,8.9,32.482,22.569,41.809a21.208,21.208,0,0,1,9.313,17.5v3.934a15.478,15.478,0,0,0,15.478,15.478H1523.7a15.478,15.478,0,0,0,15.477-15.478v-3.146a10.157,10.157,0,0,1-6.222,2.356c-7.978-.066-15.484-12.042-14.908-21.9" transform="translate(-1463.073 -378.467)" fill="none"/></clipPath><linearGradient id="af" x1="-2.749" y1="2.152" x2="-2.747" y2="2.152" gradientUnits="objectBoundingBox"><stop offset="0" stop-color="#fcb148"/><stop offset="0.052" stop-color="#fdb946"/><stop offset="0.143" stop-color="#fec144"/><stop offset="0.318" stop-color="#ffc444"/><stop offset="0.484" stop-color="#fdb946"/><stop offset="0.773" stop-color="#f99c4c"/><stop offset="0.866" stop-color="#f8924f"/><stop offset="1" stop-color="#f8924f"/></linearGradient><clipPath id="ag"><rect width="93.094" height="88.344" fill="none"/></clipPath><clipPath id="ah"><path d="M1765.793,368.132a.817.817,0,0,0,.681.835l49.955.815c.765.013.958.576.945,1.341l-.552,33.824a.836.836,0,0,0,1.647.027l.552-33.824a2.823,2.823,0,0,0-2.566-3.015l-49.955-.816h-.008a.82.82,0,0,0-.7.812" transform="translate(-1765.793 -367.32)" fill="none"/></clipPath><linearGradient id="ai" x1="-7.619" y1="3.799" x2="-7.615" y2="3.799" xlink:href="#c"/><clipPath id="aj"><path d="M1958.269,484.5l-.615,1.083a1.866,1.866,0,0,0-.249.852l-.15,9.2c0,.2,1,.374,2.054.391s2.062-.126,2.066-.324l.15-9.227a2.03,2.03,0,0,0-.361-.915l-.646-1.061a1.306,1.306,0,0,0-1.133-.653,1.279,1.279,0,0,0-1.116.652" transform="translate(-1957.255 -483.847)" fill="none"/></clipPath><linearGradient id="ak" x1="-40.242" y1="35.04" x2="-40.221" y2="35.04" xlink:href="#c"/><clipPath id="al"><path d="M1580.11,231.035l-.052.172-.191.624,1.747.535,30.553,28.784a117.368,117.368,0,0,1,18.314,8.321l47.221-7.71,2.233.683.191-.625.066-.215-42.524-39.855Z" transform="translate(-1579.866 -221.749)" fill="none"/></clipPath><linearGradient id="am" x1="-6.813" y1="2.834" x2="-6.809" y2="2.834" gradientUnits="objectBoundingBox"><stop offset="0" stop-color="#aa80f9"/><stop offset="0.996" stop-color="#6165d7"/><stop offset="1" stop-color="#6165d7"/></linearGradient><clipPath id="an"><path d="M1579.846,233.845l30.411,28.651a117.324,117.324,0,0,1,21.579,9.752l47.951-7.829-42.421-39.965Z" transform="translate(-1579.846 -224.454)" fill="#3a77a2"/></clipPath><clipPath id="ao"><path d="M1631.691,280.792a3.882,3.882,0,0,0-1.672,1.3,2.181,2.181,0,0,0-.328.65l-4.9,16.022a114.268,114.268,0,0,1,12.87,2.748,112.2,112.2,0,0,1,27.546,11.62c5.563,3.322,14.789,9.388,20.5,14.672l7.812-25.538a3.377,3.377,0,0,0-.568-2.733c-2.823-4.629-14.3-10.889-28.8-15.326-9.75-2.983-18.827-4.517-25.227-4.518a18.365,18.365,0,0,0-7.222,1.105" transform="translate(-1624.789 -279.687)" fill="#32678d"/></clipPath><clipPath id="ap"><rect width="15.141" height="20.155" fill="#1e5272"/></clipPath><clipPath id="aq"><path d="M1639.93,308.7a11.27,11.27,0,0,1-.173-3.4c.707-7.1-5.569-13.371-9.738-16.671l-.1-.084-5.126,16.755a113.233,113.233,0,0,1,15.141,3.4" transform="translate(-1624.789 -288.546)" fill="#1e5272"/></clipPath><clipPath id="ar"><path d="M1813.694,498.094c-.519,1.187-.336,2.073-.638,2.141-.169.038-.356-.209-.53-.456s-.332-.495-.441-.456c-.169.06.024.749.045,1.412a17.091,17.091,0,0,0,1.267,2.786l.691-.493a2.751,2.751,0,0,1-.068-2.118,33.559,33.559,0,0,0,.585-3.788c.051-.172.036-.274-.019-.312a.036.036,0,0,0-.021-.006c-.143,0-.594.655-.872,1.29" transform="translate(-1812.016 -496.804)" fill="#df9b67"/></clipPath><clipPath id="as"><path d="M1814.83,516.967a25.429,25.429,0,0,0,9.225,13.065c1.369.973,9.684,6.882,14.687,3.476,2.453-1.67,3.367-5.073,3.406-7.4.019-1.155.062-3.677-1.36-4.511-1.877-1.1-4.5,1.808-7.505,2.67-3.165.906-8.347,0-16.986-8.868l-1.468,1.565" transform="translate(-1814.83 -515.402)" fill="#3a77a2"/></clipPath><clipPath id="at"><path d="M1920.289,802.556c-.165.05-.71.214-1.515.508a1.584,1.584,0,0,0-.838.491c-.033.044-.327.448-.192.685.144.252.652.1,2.371-.132,1.088-.146,1.782-.207,1.885-.569a.787.787,0,0,0-.011-.258c-.039-.311-.1-.786-.338-.97a.277.277,0,0,0-.184-.059,6,6,0,0,0-1.177.3" transform="translate(-1917.709 -802.251)" fill="none"/></clipPath><linearGradient id="au" x1="-113.797" y1="53.709" x2="-113.738" y2="53.709" gradientUnits="objectBoundingBox"><stop offset="0" stop-color="#444b8c"/><stop offset="0.996" stop-color="#26264f"/><stop offset="1" stop-color="#26264f"/></linearGradient><clipPath id="av"><path d="M1928.234,798.554a1.067,1.067,0,0,0,1.1.1l.382-1.946-1.374-.125Z" transform="translate(-1928.234 -796.583)" fill="none"/></clipPath><linearGradient id="aw" x1="-182.583" y1="49.597" x2="-182.488" y2="49.597" xlink:href="#c"/><clipPath id="ax"><path d="M1860.74,800.135a11.759,11.759,0,0,0-1.539.55c-.9.333-1.166.42-1.168.572,0,.216.537.4.841.475.754.182,1.033-.087,2.132-.155a7.732,7.732,0,0,1,.859,0c.408.018.616.036.767-.149a.971.971,0,0,0-.138-1.163,1,1,0,0,0-.757-.264,5.393,5.393,0,0,0-1,.137" transform="translate(-1858.033 -799.998)" fill="none"/></clipPath><linearGradient id="ay" x1="-162.735" y1="23.919" x2="-162.648" y2="23.919" xlink:href="#au"/><clipPath id="az"><path d="M1870.276,796.093a1.069,1.069,0,0,0,1.091.184l.762-1.807-1.36-.229Z" transform="translate(-1870.276 -794.24)" fill="none"/></clipPath><linearGradient id="ba" x1="-167.776" y1="43.772" x2="-167.686" y2="43.772" xlink:href="#c"/><clipPath id="bb"><path d="M1873.476,660.83a171.969,171.969,0,0,1-3.277,20.213l2.13.5a17.918,17.918,0,0,0,4.868-8.154c.6-2.32.338-3.494.675-6.335.537-4.524,1.841-6.926,3.151-10.6a59.784,59.784,0,0,0,3.145-14.565l-9.845-1.739a172.01,172.01,0,0,1-.847,20.682" transform="translate(-1870.199 -640.148)" fill="none"/></clipPath><clipPath id="bc"><rect width="13.968" height="41.395" fill="none"/></clipPath><clipPath id="bd"><path d="M1874.323,640.148c1.969,1.4,4.433,3.638,4.447,6.424.01,2.068-1.338,2.492-2.252,5.538-1.12,3.735.422,4.714-.3,9.423-.541,3.505-1.367,2.779-2.2,7.055-.744,3.807-.306,5.489-1.548,8.552a16.314,16.314,0,0,1-2.264,3.9l2.13.5a17.919,17.919,0,0,0,4.868-8.154c.6-2.32.338-3.494.675-6.336.537-4.524,1.841-6.927,3.151-10.6a59.776,59.776,0,0,0,3.145-14.565l-9.845-1.739" transform="translate(-1870.199 -640.148)" fill="none"/></clipPath><linearGradient id="be" x1="-10.888" y1="5.509" x2="-10.882" y2="5.509" gradientUnits="objectBoundingBox"><stop offset="0" stop-color="#311944"/><stop offset="0.741" stop-color="#5c3169"/><stop offset="1" stop-color="#6b3976"/></linearGradient><clipPath id="bf"><path d="M1915.569,639.087q1.023,11.744,1.822,23.928.6,9.142,1.027,18.055l2.165.2a25.132,25.132,0,0,0,2.064-5.877c.669-3.1.432-4.925.667-8.126.263-3.59.787-4.387,1.614-8.932,1.679-9.223,2.519-13.835.227-16.614-.669-.811-2.605-2.708-7.727-2.709-.578,0-1.2.024-1.858.077" transform="translate(-1915.569 -639.01)" fill="none"/></clipPath><clipPath id="bg"><path d="M1903.845,501.765c-1.741.094-4.346.973-5.33,2.929-.8,1.6.284,2.311.359,6.319.062,3.27-.625,4.816.2,5.313s2.9-.137,4.089-1.017a1.952,1.952,0,0,1,1.293-.5,1.807,1.807,0,0,1,1.137.618,24.389,24.389,0,0,0,5.162,4.8,23.539,23.539,0,0,0,9.292,3.862c3.873.607,9.651,1.53,12.717-2.257,2.705-3.341,2.452-9.3-.293-11.548-1.4-1.146-3.06-.969-4.86-.793-1.941.19-4.042.38-6.141-1.088-2.5-1.745-1.451-3.482-4.011-4.957a6.222,6.222,0,0,0-3.9-.664,20.729,20.729,0,0,1-6-.52,16.955,16.955,0,0,0-3.206-.542,4.876,4.876,0,0,0-.509.044" transform="translate(-1898.221 -501.72)" fill="#e14778"/></clipPath><clipPath id="bh"><path d="M1886.406,538.6c-3.225.233-3.568.585-3.854.922a11.943,11.943,0,0,0-2.48,5.023,8.992,8.992,0,0,0-.158,1.63,19.45,19.45,0,0,0,.328,3.681c.848,4.055-1.221,13.49-1.343,14.033-1.2,5.37-2.13,6.216-1.311,7.49,1.924,2.993,9.3,1.778,10.91,1.512,4.852-.8,5.517-2.413,8.631-1.828,2.979.559,4.349,2.408,6.57,1.651,1.161-.4,2.395-1.448,2.4-2.56.008-1.544-2.358-2.217-4.469-3.891-4.44-3.52-5.216-9.453-5.289-10.071-.632-5.4,2.653-7.631,1.2-13.556a6.079,6.079,0,0,0-1.385-2.953,6.875,6.875,0,0,0-5.121-1.8,16.793,16.793,0,0,0-4.63.714" transform="translate(-1877.279 -537.884)" fill="none"/></clipPath><clipPath id="bi"><rect width="28.774" height="33.678" fill="none"/></clipPath><clipPath id="bj"><path d="M1896.294,544.745c.679-.029,1.293,2.576,1.386,2.953,1.451,5.925-1.833,8.158-1.2,13.556.072.618.849,6.552,5.289,10.071,2.111,1.674,4.478,2.347,4.47,3.891-.006,1.112-1.24,2.164-2.4,2.56-2.221.757-3.591-1.092-6.57-1.651-3.114-.584-3.779,1.029-8.631,1.829-1.615.266-8.986,1.481-10.91-1.512-.2-.309-.274-.445-.26-.58.156-1.49,7.053-.361,8.684-3.119,1.593-2.695-2.906-7.3-1.5-8.758,1.1-1.142,4.087,1.414,6.38.1,1.438-.824,1.622-2.609,2.222-6.448,1.054-6.74,2.009-12.846,3.04-12.89" transform="translate(-1877.462 -544.745)" fill="none"/></clipPath><linearGradient id="bk" x1="-16.424" y1="5.303" x2="-16.416" y2="5.303" xlink:href="#am"/><clipPath id="bl"><path d="M1903.028,525.769q-.082.667-.164,1.333a12.124,12.124,0,0,0-1.359.38,17.7,17.7,0,0,0-2.085,1.122,6.333,6.333,0,0,0,1.049.872,9.352,9.352,0,0,0,2.808.762c.357.053,2.859.386,4.049-1.247a3.135,3.135,0,0,0,.565-1.6c-.3-.026-.734-.071-1.247-.15a4.959,4.959,0,0,1-1.384-.3c-.955-.559-.564-2.861-.486-3.291l-1.746,2.119" transform="translate(-1899.42 -523.65)" fill="#ffb882"/></clipPath><clipPath id="bm"><path d="M1906.9,517.651a1.955,1.955,0,0,0-1.379.623c-.718.936.494,4.428,1.945,4.116a2.283,2.283,0,0,0,1.736-2.03,1.182,1.182,0,0,0,.375-.619c.021-.094.113-.507-.088-.642-.159-.106-.47-.02-.714.254a2.17,2.17,0,0,0-1.873-1.7h0" transform="translate(-1905.306 -517.651)" fill="#ffb882"/></clipPath><clipPath id="bn"><path d="M1899.819,597.264q-.455.014.029.91c.323.6-1.2.342-1.83-.245s-1.233-.568-.92-.274a2.416,2.416,0,0,1,.636.891,3.118,3.118,0,0,0,3.334,2.17l.658-.78s-.93-.578-.949-1.184-.648-1.487-.954-1.488h0" transform="translate(-1897.014 -597.264)" fill="#fdb250"/></clipPath><clipPath id="bo"><path d="M1918.374,540.206c-1.649.8-2.059,4.788-.667,7.613,1.573,3.192,4.879,3.752,4.745,5.92a3.769,3.769,0,0,1-1.742,2.485c-3.1,2.455-7.5,1.088-8.171.87l-.852,1.849c6.529,4.669,14.236,3.6,17-.242,3.309-4.6-1.274-12.081-4.44-15.344-.527-.543-3.21-3.309-5.147-3.309a1.638,1.638,0,0,0-.723.157" transform="translate(-1911.688 -540.049)" fill="#3a77a2"/></clipPath><clipPath id="bp"><path d="M1470.954,766.854v8.415a.382.382,0,0,0,.357.376l15.118.906a.382.382,0,0,0,.429-.364v-9.239a.413.413,0,0,0-.429-.391l-15.118-.057h0a.354.354,0,0,0-.355.353" transform="translate(-1470.954 -766.501)" fill="none"/></clipPath><clipPath id="bq"><rect width="17.136" height="11.487" fill="none"/></clipPath><clipPath id="br"><path d="M1443.693,803.883l-8.216.964,18.047,1.3a1.187,1.187,0,0,0,.262-.011l7.589-1.164-17.406-1.1c-.032,0-.065,0-.1,0a1.538,1.538,0,0,0-.179.01" transform="translate(-1435.477 -803.872)" fill="none"/></clipPath><linearGradient id="bs" x1="-14.512" y1="52.863" x2="-14.502" y2="52.863" xlink:href="#au"/><clipPath id="bt"><rect width="18.974" height="1.514" fill="none"/></clipPath><clipPath id="bu"><path d="M1450.564,935.362c-.083.391.676.663,1.6.628s3.563-1,3.506-1.245-3.863-.513-3.863-.513l-.835-.242s-.323.983-.406,1.373" transform="translate(-1450.558 -933.989)" fill="none"/></clipPath><linearGradient id="bv" x1="-156.132" y1="16.375" x2="-156.024" y2="16.375" xlink:href="#s"/><clipPath id="bw"><path d="M1450.347,928.495l.511,1.895a1.4,1.4,0,0,0,1.039-.139l-.067-1.8Z" transform="translate(-1450.347 -928.454)" fill="none"/></clipPath><linearGradient id="bx" x1="-203.543" y1="37.634" x2="-203.402" y2="37.634" xlink:href="#c"/><clipPath id="by"><path d="M1491.23,932.594c-.083.391.675.663,1.6.627s3.563-1,3.506-1.245-3.863-.513-3.863-.513l-.835-.242s-.323.983-.406,1.373" transform="translate(-1491.224 -931.221)" fill="none"/></clipPath><linearGradient id="bz" x1="-160.46" y1="16.509" x2="-160.353" y2="16.509" xlink:href="#s"/><clipPath id="ca"><path d="M1491.014,925.727l.511,1.895a1.4,1.4,0,0,0,1.039-.139l-.068-1.8Z" transform="translate(-1491.014 -925.686)" fill="none"/></clipPath><linearGradient id="cb" x1="-209.249" y1="37.939" x2="-209.108" y2="37.939" xlink:href="#c"/><clipPath id="cc"><path d="M1369.814,837.071c-10.258,1.878-15.408,2.864-16.446,5.128a6.25,6.25,0,0,0,.237,4.979c1.392,2.96,5.015,4.32,7.79,4.4,3.155.088,5.755-1.465,7.829-3.018,2.373-1.777,4.057-3.554,5.095-2.872,1.374.9-.767,4.53.711,9.564a14.338,14.338,0,0,0,3.162,5.533l2.134-.237c.7-4.145,3.339-21.235-2.992-24.257a2.538,2.538,0,0,0-1.066-.172,46.3,46.3,0,0,0-6.453.955" transform="translate(-1352.936 -836.116)" fill="#228f5e"/></clipPath><clipPath id="cd"><path d="M1385.66,844.559c-13.988,2.724-18.234,2.352-19.523,5.454a5.315,5.315,0,0,0,.711,4.98c2.241,2.984,7.78,2.18,10.276,1.818,7.627-1.107,9.957-5.122,13.041-3.636,1.457.7,1.4,1.81,4.553,7.266,1.513,2.617,2.865,4.68,3.759,6l2.207-.384c.019-3.584-.125-19.651-7.5-22.275a3.716,3.716,0,0,0-1.346-.242,43.575,43.575,0,0,0-6.174,1.024" transform="translate(-1365.8 -843.535)" fill="#37af79"/></clipPath><clipPath id="ce"><path d="M1363.347,747.142c-1.264.095-4.387.328-6.7,2.333-1.12.97-2.015,2.325-3.319,9.959-1.82,10.647-.343,9.556-1.779,13.872-.76,2.284-1.943,4.9-.691,6.577.4.541.982.7,2.16,1.225a20.044,20.044,0,0,0,10.738,1.4c2.637-.261,3.97-.411,4.669-1.343,1.117-1.488-.033-3.379-.234-6.653-.144-2.35.391-4.213,1.459-7.937,2.485-8.659,5.71-11.013,4.319-14.415a7.594,7.594,0,0,0-3.093-3.327,6.716,6.716,0,0,0-1.158-.619,15.836,15.836,0,0,0-5.756-1.092c-.294,0-.506.01-.615.018" transform="translate(-1350.31 -747.124)" fill="#fd7e50"/></clipPath><clipPath id="cf"><path d="M1490.818,804.708l-2.811.54.117.865a5.429,5.429,0,0,1,2.812-.556,6.66,6.66,0,0,0,2.925-.437l-2.431-.418a1.705,1.705,0,0,0-.612.006" transform="translate(-1488.008 -804.677)" fill="none"/></clipPath><linearGradient id="cg" x1="-64.646" y1="45.576" x2="-64.603" y2="45.576" xlink:href="#c"/><clipPath id="ch"><path d="M1396.235,724.333c-.4.086-.833,1.73-.71,4.055q-.025.133-.049.268-.095.551-.153,1.079c-.037.336-.514.329-.852.307-1.371-.088-2.042.029-2.1.234-.109.383,1.518,1.634,3.526,1.915,2.7.02,4.889-.267,4.653-.692-.1-.188-2.194-.734-2.781-1.275a1.8,1.8,0,0,1-.539-1.373c.278.015,1.205.034,1.566-.51.473-.714-.235-2.088-.515-2.631-.01-.019-.022-.043-.048-.092-.43-.793-.54-.9-.745-1.038l-.285-.176-.034-.012a3.042,3.042,0,0,0-.717-.069,1.337,1.337,0,0,0-.216.012" transform="translate(-1392.364 -724.321)" fill="#32678d"/></clipPath><clipPath id="ci"><path d="M1409.684,733.6c0,.314.3.64.6.578s.129-.551-.109-.877a.22.22,0,0,0-.178-.1.378.378,0,0,0-.31.4" transform="translate(-1409.684 -733.2)" fill="none"/></clipPath><linearGradient id="cj" x1="-281.254" y1="112.663" x2="-281.054" y2="112.663" xlink:href="#c"/><clipPath id="ck"><rect width="20.597" height="27.576" fill="none"/></clipPath><clipPath id="cl"><path d="M1365.408,801.948c.776-1.544-1.125-3.6.117-5.953,1.055-2,2.971-1.552,3.852-3.385,1.064-2.214-1.25-3.869-1.167-7.237.1-4.026,3.564-8.057,5.6-7.7,1.319.229,1.489,2.2,2.417,4.351a48.956,48.956,0,0,0-2.65,7.087c-1.069,3.725-1.6,5.587-1.459,7.937.2,3.274,1.35,5.165.233,6.653-.7.932-2.032,1.081-4.669,1.342a20.046,20.046,0,0,1-10.738-1.4c-.557-.251-.973-.438-1.314-.623,6.872,1.032,9.16.156,9.776-1.069" transform="translate(-1355.632 -777.648)" fill="none"/></clipPath><linearGradient id="cm" x1="-10.104" y1="3.777" x2="-10.096" y2="3.777" gradientUnits="objectBoundingBox"><stop offset="0" stop-color="#ff9085"/><stop offset="1" stop-color="#fb6fbb"/></linearGradient><clipPath id="cn"><path d="M1419.452,753.9c-1.946.476-2.589,5.545-2.043,9.338.307,2.137.91,6.327,4.348,8.316.063.037.163.094.3.165.433.231,2.153,1.059,5.541.447a28.844,28.844,0,0,0,8.878-3.605q-.119-.538-.239-1.075c-5.4.968-7.761-.119-8.9-1.389-1.047-1.165-.6-1.767-2.276-6.215-1.6-4.237-3.406-5.325-4.319-5.719a2.623,2.623,0,0,0-1.007-.3,1.172,1.172,0,0,0-.277.034" transform="translate(-1417.223 -753.862)" fill="#fd7e50"/></clipPath><clipPath id="co"><path d="M1357.51,935.811c0,1.991,4.19,3.605,9.359,3.605s9.359-1.614,9.359-3.605-4.19-5.25-9.359-5.25-9.359,3.258-9.359,5.25" transform="translate(-1357.51 -930.561)" fill="#3a77a2"/></clipPath><clipPath id="cp"><rect width="15.727" height="7.019" fill="none"/></clipPath><clipPath id="cq"><path d="M1357.51,935.811c0-1.991,4.19-5.25,9.359-5.25a12.7,12.7,0,0,1,6.217,1.639,1.359,1.359,0,0,1,.148.712c-.107,1.121-1.935,1.809-2.984,2.036-2.641.572-3.931-1.007-6.109-.947-1.347.037-3.212.714-5.425,3.578a2.284,2.284,0,0,1-1.205-1.769" transform="translate(-1357.51 -930.561)" fill="none"/></clipPath><linearGradient id="cr" x1="-22.573" y1="12.457" x2="-22.556" y2="12.457" xlink:href="#am"/><clipPath id="cs"><rect width="2.081" height="11.275" fill="#1e5272"/></clipPath><clipPath id="ct"><path d="M1389.81,905.875a2.117,2.117,0,0,0,1.051.006.677.677,0,0,0,.5-.658V894.67h-2.081v10.541a.689.689,0,0,0,.528.665" transform="translate(-1389.282 -894.67)" fill="#1e5272"/></clipPath><clipPath id="cu"><path d="M1350.365,824.5c-2.917.13-5,.223-6,1.615-1.285,1.787.87,3.407.424,8.518-.182,2.084-.645,3.01-.068,4.39a6.227,6.227,0,0,0,3.537,3.087,18.122,18.122,0,0,0,7.5,2.4,18.671,18.671,0,0,0,11.55-2.914,1.906,1.906,0,0,0,1.293-1.431,1.68,1.68,0,0,0-.748-1.761l-3.179-2.01c-.133-.751-1.631-8.6-7.715-11.071a13.624,13.624,0,0,0-5.084-.86c-.581,0-1.1.023-1.514.042" transform="translate(-1343.952 -824.457)" fill="none"/></clipPath><clipPath id="cv"><rect width="19.097" height="17.982" fill="none"/></clipPath><clipPath id="cw"><path d="M1545.5,990.38c-.31.259-.522.784-.344,1.021.065.087-.2.238.054.241.848.01,2.312-.655,2.242-1.042-.045-.249-.576-.483-1.115-.483a1.3,1.3,0,0,0-.837.263" transform="translate(-1545.088 -990.117)" fill="none"/></clipPath><linearGradient id="cx" x1="-135.258" y1="26.823" x2="-135.171" y2="26.823" xlink:href="#au"/><clipPath id="cy"><path d="M1542.581,991.35c-.168.309-.3,1.137.689,1.11s1.125-.8,1.037-1.06a7.209,7.209,0,0,0-1.277-.176c-.222,0-.4.032-.449.125" transform="translate(-1542.465 -991.225)" fill="none"/></clipPath><linearGradient id="cz" x1="-164.073" y1="32.426" x2="-163.966" y2="32.426" xlink:href="#au"/><clipPath id="da"><path d="M1608.869,1001.849c-.27.3-.408.849-.2,1.06.077.076-.166.264.087.231.841-.109,2.2-.972,2.074-1.346-.066-.2-.46-.341-.9-.341a1.438,1.438,0,0,0-1.066.4" transform="translate(-1608.569 -1001.453)" fill="none"/></clipPath><linearGradient id="db" x1="-139.918" y1="23.603" x2="-139.831" y2="23.603" xlink:href="#au"/><clipPath id="dc"><path d="M1605.929,1003.446c-.124.329-.137,1.167.838,1s1-.948.879-1.195c0,0-.329-.029-.7-.029-.445,0-.949.041-1.017.221" transform="translate(-1605.87 -1003.225)" fill="none"/></clipPath><linearGradient id="dd" x1="-175.064" y1="29.294" x2="-174.954" y2="29.294" xlink:href="#au"/><clipPath id="de"><path d="M1528.74,840.015c.579,3.429,1.549,4.341,1.321,7.388-.246,3.292-1.539,4.359-1.5,8.042.008.73.059.677.793,4.863,1.143,6.523,2.642,8.978,2.642,8.978a4.024,4.024,0,0,0,2.466,0c1.04-6.762,1.967-13.876,2.73-21.322q.988-9.641,1.5-18.61l-9.159-.842a25.974,25.974,0,0,0-.793,11.5" transform="translate(-1528.422 -828.512)" fill="none"/></clipPath><linearGradient id="df" x1="-37.851" y1="2.77" x2="-37.826" y2="2.77" gradientUnits="objectBoundingBox"><stop offset="0" stop-color="#311944"/><stop offset="1" stop-color="#6b3976"/></linearGradient><clipPath id="dg"><rect width="9.433" height="40.968" fill="none"/></clipPath><clipPath id="dh"><path d="M1541.051,829.354q-.524,8.958-1.5,18.61c-.763,7.446-1.69,14.56-2.73,21.322a4.025,4.025,0,0,1-2.466,0c.016-.626.06-1.569.191-2.708.347-3.022.9-3.882.956-5.736.072-2.372-.786-2.445-.956-4.78-.263-3.62,1.724-4.478,1.912-7.648.2-3.349-1.9-4.451-3.505-8.6a22.083,22.083,0,0,1-1.063-11.3l9.159.841" transform="translate(-1531.617 -828.513)" fill="none"/></clipPath><linearGradient id="di" x1="-40.517" y1="2.77" x2="-40.491" y2="2.77" xlink:href="#df"/><clipPath id="dj"><path d="M1552.134,832.977a19.841,19.841,0,0,0,.264,7.668c.521,2.165,1.151,3.041,4.227,9.071,3.223,6.318,3.5,7.259,3.7,8.136.86,3.811-.126,4.953.528,8.323a17.389,17.389,0,0,0,4.844,8.791l1.673-.468a125.609,125.609,0,0,0-4.932-43.485l-10.3,1.964" transform="translate(-1551.88 -831.013)" fill="none"/></clipPath><linearGradient id="dk" x1="-17.007" y1="2.485" x2="-16.996" y2="2.485" xlink:href="#be"/><clipPath id="dl"><path d="M1653.6,747.451a7.985,7.985,0,0,0-.958-.76c-.264-.132-.231.4-.033.595s-.1,1.816.1,1.982l-.066.99.793.33.165-1.519.875-1.669a1.585,1.585,0,0,0,.182-.737v-1.657Z" transform="translate(-1652.448 -745.007)" fill="none"/></clipPath><linearGradient id="dm" x1="-189.836" y1="24.37" x2="-189.721" y2="24.37" gradientUnits="objectBoundingBox"><stop offset="0" stop-color="#ffc444"/><stop offset="0.637" stop-color="#f78e50"/><stop offset="0.996" stop-color="#f36f56"/><stop offset="1" stop-color="#f36f56"/></linearGradient><clipPath id="dn"><path d="M1522.776,702.332c-2.925,1.017-4.452,3.671-5.152,4.888-3.529,6.133.6,9.25-.462,21.467-.433,4.99-1.542,9.325,1.123,11.889a8.043,8.043,0,0,0,2.444,1.387,22.685,22.685,0,0,0,12.153,1.585c2.985-.3,4.493-.464,5.285-1.519,1.264-1.684-.037-3.825-.265-7.53-.163-2.66.442-4.768,1.651-8.983,2.812-9.8,6.463-12.464,4.888-16.315a8.6,8.6,0,0,0-3.5-3.765c-2.164-1.418-3.55-1.159-8.521-1.916-4.932-.75-6.632-1.471-8.1-1.471a4.528,4.528,0,0,0-1.547.283" transform="translate(-1516.166 -702.049)" fill="none"/></clipPath><clipPath id="do"><rect width="23.312" height="31.211" fill="#228f5e"/></clipPath><clipPath id="dp"><path d="M1538.977,769.641c.878-1.748-1.273-4.072.132-6.737,1.194-2.264,3.363-1.757,4.36-3.831,1.2-2.506-1.415-4.378-1.321-8.19.112-4.557,4.034-9.119,6.341-8.719,1.493.259,1.685,2.486,2.735,4.925a55.4,55.4,0,0,0-3,8.021c-1.209,4.216-1.814,6.323-1.651,8.983.227,3.705,1.528,5.846.264,7.53-.791,1.055-2.3,1.224-5.284,1.519a22.689,22.689,0,0,1-12.154-1.585c-.63-.283-1.1-.5-1.487-.705,7.777,1.168,10.368.176,11.064-1.21" transform="translate(-1527.913 -742.138)" fill="#228f5e"/></clipPath><clipPath id="dq"><path d="M1600.144,715.255c-2.2.538-2.929,6.276-2.312,10.569.348,2.419,1.031,7.161,4.921,9.413.552.32,3.594,2.08,6.6.694,2.572-1.185,4.161-4.224,3.9-7.629l-1.453-.627c-.818.837-1.863,1.652-2.741,1.387-1.309-.394-.982-2.8-2.576-7.034-1.807-4.795-3.856-6.028-4.888-6.473a2.972,2.972,0,0,0-1.139-.336,1.32,1.32,0,0,0-.314.038" transform="translate(-1597.621 -715.217)" fill="#228f5e"/></clipPath></defs><rect width="320" height="320" fill="#fff" opacity="0"/><g transform="translate(54.845 56.721)"><path d="M1438.5,266.254c-44.12-53.292-148.573-56.271-179.286-14-16.922,23.29-9.851,58.1-6.362,75.282a134.832,134.832,0,0,0,25.712,56.278c8.389,10.475,28.766,35.917,59.425,41.733,52.385,9.937,117.751-40.658,121.372-97.741,2.088-32.91-17.047-56.943-20.861-61.551" transform="translate(-1248.374 -222.772)" fill="#ede9e5"/><path d="M1382.157,328.831c3.974,2.017,8.966.165,11.15-4.138s.734-9.426-3.239-11.444c-.206-.1-.416-.192-.627-.276a50.343,50.343,0,0,0,1.668-7.181c.228,0,.456,0,.688-.025a9.142,9.142,0,0,0,8.037-9.3,7.742,7.742,0,0,0-8.38-7.842c-.237.021-.47.059-.7.1a46.207,46.207,0,0,0-1.941-6.857c.209-.122.416-.248.619-.39a9.143,9.143,0,0,0,2.77-11.979,7.743,7.743,0,0,0-11.276-2.139c-.2.14-.385.29-.57.442a40.971,40.971,0,0,0-5.03-4.7c.128-.209.253-.422.366-.645,2.185-4.3,5.039-9,1.035-10.958-9.264-4.523-13.24-.651-15.424,3.652-.114.223-.211.449-.3.676a41.025,41.025,0,0,0-6.759-1.29c.014-.239.025-.479.021-.721-.1-4.735,1.31-7.3-3.241-7.386-9.923-.193-13.272,4.114-13.177,8.849.005.247.026.489.05.73a46.226,46.226,0,0,0-6.682,2.479c-.1-.211-.21-.421-.333-.625a7.742,7.742,0,0,0-11.276-2.138,9.142,9.142,0,0,0-2.77,11.979c.12.2.252.387.386.571a50.448,50.448,0,0,0-4.813,5.584c-.192-.12-.387-.238-.593-.343-3.974-2.018-8.966-.165-11.151,4.138s-.734,9.426,3.24,11.444c.206.1.416.192.627.276a50.4,50.4,0,0,0-1.668,7.181c-.228,0-.456,0-.689.025a9.142,9.142,0,0,0-8.037,9.305,7.742,7.742,0,0,0,8.381,7.842c.237-.021.469-.058.7-.1a46.208,46.208,0,0,0,1.941,6.857c-.209.122-.416.248-.619.39a9.143,9.143,0,0,0-2.77,11.979c2.349,3.9,10.126,5.71,14,2.992.2-.139-2.342-1.143-2.158-1.3a40.943,40.943,0,0,0,5.03,4.7c-.128.209-.253.422-.366.645-2.185,4.3-.734,9.426,3.24,11.444s8.966.165,11.15-4.138c.113-.223.211-.449.3-.676a40.948,40.948,0,0,0,6.759,1.29c-.014.239-.025.479-.02.722a7.742,7.742,0,0,0,8.381,7.842,9.142,9.142,0,0,0,8.037-9.305c-.005-.247-.026-.489-.05-.73a46.216,46.216,0,0,0,6.682-2.479c.1.211.21.421.333.625a7.742,7.742,0,0,0,11.276,2.139,9.142,9.142,0,0,0,2.77-11.979c-.12-.2-.252-.386-.386-.571a50.388,50.388,0,0,0,4.813-5.584c.192.12.387.238.593.343m-49.536.628c-14.427-7.325-19.693-25.927-11.762-41.549s26.057-22.348,40.485-15.023,19.693,25.927,11.762,41.55-26.057,22.348-40.485,15.023" transform="translate(-1282.15 -239.963)" fill="#cfc3be"/><path d="M1398.482,329.329c3.974,2.018,8.966.165,11.15-4.138s.734-9.426-3.239-11.444c-.206-.1-.416-.192-.626-.276a50.381,50.381,0,0,0,1.668-7.181c.228,0,.456,0,.689-.025a9.142,9.142,0,0,0,8.037-9.3,7.742,7.742,0,0,0-8.38-7.842c-.237.021-.47.059-.7.1a46.22,46.22,0,0,0-1.941-6.857c.209-.122.416-.248.619-.39a9.142,9.142,0,0,0,2.77-11.979,7.742,7.742,0,0,0-11.276-2.139c-.2.139-.386.29-.57.442a40.952,40.952,0,0,0-5.031-4.7c.128-.21.253-.422.366-.645,2.184-4.3.734-9.426-3.24-11.443s-8.966-.165-11.15,4.138c-.113.223-.211.449-.3.676a40.955,40.955,0,0,0-6.759-1.29c.014-.239.025-.479.021-.722a7.743,7.743,0,0,0-8.381-7.842,9.142,9.142,0,0,0-8.037,9.305c0,.247.026.489.05.73a46.236,46.236,0,0,0-6.682,2.479c-.1-.211-.21-.421-.333-.625a7.742,7.742,0,0,0-11.276-2.138,9.142,9.142,0,0,0-2.77,11.979c.12.2.252.386.386.571a50.374,50.374,0,0,0-4.813,5.584c-.192-.12-.387-.238-.593-.343-3.974-2.018-8.966-.165-11.15,4.137s-.734,9.426,3.24,11.444c.206.1.416.192.627.276a50.429,50.429,0,0,0-1.668,7.181c-.228,0-.456,0-.688.025a9.142,9.142,0,0,0-8.037,9.305,7.742,7.742,0,0,0,8.38,7.842c.237-.021.47-.058.7-.1a46.189,46.189,0,0,0,1.941,6.857c-.209.122-.416.248-.619.39a9.142,9.142,0,0,0-2.77,11.979,7.742,7.742,0,0,0,11.276,2.139c.2-.139.386-.29.571-.442a40.98,40.98,0,0,0,5.03,4.7c-.128.209-.253.422-.366.645-2.185,4.3-.734,9.426,3.24,11.444s8.966.165,11.15-4.138c.113-.223.211-.449.3-.676a40.939,40.939,0,0,0,6.759,1.29c-.014.239-.025.479-.02.722a7.742,7.742,0,0,0,8.381,7.842,9.142,9.142,0,0,0,8.037-9.3c-.005-.247-.026-.489-.05-.73a46.234,46.234,0,0,0,6.681-2.479c.1.211.211.421.333.625a7.742,7.742,0,0,0,11.276,2.138,9.143,9.143,0,0,0,2.77-11.979c-.12-.2-.252-.386-.386-.57a50.449,50.449,0,0,0,4.813-5.584c.192.12.387.238.593.343m-49.536.629c-14.427-7.325-19.693-25.927-11.761-41.549s26.057-22.348,40.484-15.023,19.694,25.927,11.762,41.549-26.057,22.348-40.485,15.023" transform="translate(-1294.201 -239.976)" fill="#e1d6d1"/><path d="M1823.65,631.112a4.72,4.72,0,0,0,4.26-8.391c-.111-.056-.224-.1-.338-.149a27.112,27.112,0,0,0,.9-3.867c.122,0,.246,0,.371-.014a4.924,4.924,0,0,0,4.328-5.011,4.17,4.17,0,0,0-4.513-4.223c-.128.011-.253.032-.378.054a24.887,24.887,0,0,0-1.046-3.693c.112-.066.224-.133.333-.21a4.923,4.923,0,0,0,1.492-6.451,4.169,4.169,0,0,0-6.073-1.152c-.107.075-.208.156-.307.238a22.048,22.048,0,0,0-2.709-2.529c.068-.113.136-.227.2-.347a4.36,4.36,0,1,0-7.75-3.935c-.061.12-.113.242-.164.364a22.088,22.088,0,0,0-3.64-.695c.008-.129.013-.258.011-.389a4.17,4.17,0,0,0-4.514-4.223,4.924,4.924,0,0,0-4.328,5.011c0,.133.014.264.027.393a24.894,24.894,0,0,0-3.6,1.336c-.055-.114-.114-.227-.179-.337a4.17,4.17,0,0,0-6.073-1.152,4.923,4.923,0,0,0-1.491,6.452c.065.108.136.208.208.307a27.075,27.075,0,0,0-2.592,3.008c-.1-.065-.208-.129-.319-.185a4.721,4.721,0,0,0-4.261,8.392c.111.056.224.1.338.149a27.047,27.047,0,0,0-.9,3.867c-.123,0-.246,0-.371.014a4.923,4.923,0,0,0-4.328,5.011,4.17,4.17,0,0,0,4.514,4.223c.127-.011.253-.031.378-.054a24.871,24.871,0,0,0,1.045,3.693c-.112.066-.224.133-.333.21a4.924,4.924,0,0,0-1.492,6.452,4.17,4.17,0,0,0,6.073,1.152c.107-.075.208-.156.307-.238a22.081,22.081,0,0,0,2.709,2.529c-.069.113-.136.227-.2.347A4.36,4.36,0,1,0,1797,641c.061-.12.113-.242.164-.364a22.059,22.059,0,0,0,3.64.695c-.008.129-.013.258-.011.389a4.17,4.17,0,0,0,4.513,4.223,4.923,4.923,0,0,0,4.328-5.011c0-.133-.013-.264-.027-.393a24.878,24.878,0,0,0,3.6-1.335c.056.114.114.227.179.336a4.169,4.169,0,0,0,6.073,1.152,4.924,4.924,0,0,0,1.492-6.452c-.064-.107-.135-.208-.208-.307a27.145,27.145,0,0,0,2.592-3.008c.1.065.209.128.32.185m-26.678.338c-7.771-3.945-10.606-13.963-6.335-22.377s14.033-12.036,21.8-8.091,10.606,13.964,6.334,22.377-14.033,12.036-21.8,8.091" transform="translate(-1638.036 -490.981)" fill="#e1d6d1"/><g transform="translate(111.288 151.358)"><g clip-path="url(#a)"><rect width="98.411" height="13.207" transform="translate(0 0)" fill="#37af79"/></g></g><g transform="translate(104.463 173.678)"><g clip-path="url(#b)"><rect width="40.381" height="51.986" transform="translate(-8.744 19.887) rotate(-66.267)" fill="url(#c)"/></g></g><g transform="translate(143.085 176.372)"><g clip-path="url(#d)"><path d="M0,0H66.678V20.653H0Z" transform="translate(0 0)" fill="#fff"/></g></g><g transform="translate(141.476 175.652)"><g clip-path="url(#e)"><rect width="69.46" height="22.277" transform="translate(0 0)" fill="url(#f)"/></g></g><g transform="translate(104.463 153.281)"><g clip-path="url(#g)"><rect width="39.466" height="53.3" transform="translate(-7.379 24.856) rotate(-73.465)" fill="#228f5e"/></g></g><g transform="translate(143.085 154.263)"><g clip-path="url(#h)"><path d="M0,0H66.678V25.028H0Z" transform="translate(0 0)" fill="#fff"/></g></g><g transform="translate(141.476 153.232)"><g clip-path="url(#i)"><rect width="69.46" height="27.473" transform="translate(0 0)" fill="#37af79"/></g></g><g transform="translate(128.077 157.631)" opacity="0.5" style="mix-blend-mode:soft-light;isolation:isolate"><g clip-path="url(#j)"><path d="M1747.2,841.119l-8.25-1.442c-1.927-5.258-1.782-10.088,0-15.861l8.25.586a30.333,30.333,0,0,0,0,16.716" transform="translate(-1737.561 -823.816)" fill="#fff"/></g></g><g transform="translate(56.211 32.671)" opacity="0.75"><g clip-path="url(#k)"><path d="M1571.057,397.944c0-28.393-24.173-51.41-53.992-51.41s-53.992,23.017-53.992,51.41c0,17.231,8.9,32.482,22.569,41.81a21.208,21.208,0,0,1,9.313,17.5v3.934a15.478,15.478,0,0,0,15.478,15.478H1523.7a15.478,15.478,0,0,0,15.478-15.478v-3.934a21.208,21.208,0,0,1,9.313-17.5c13.665-9.328,22.569-24.579,22.569-41.81" transform="translate(-1463.072 -346.534)" fill="#f4f7fa"/></g></g><g transform="translate(98.227 179.383)"><g clip-path="url(#l)"><rect width="15.555" height="25.342" transform="translate(-1.561 12.487) rotate(-82.875)" fill="#1e5272"/></g></g><g transform="translate(94.291 174.396)"><g clip-path="url(#m)"><rect width="28.011" height="34.796" transform="translate(-6.097 10.975) rotate(-60.945)" fill="#3a77a2"/></g></g><g transform="translate(94.292 174.396)" opacity="0.3" style="mix-blend-mode:multiply;isolation:isolate"><g clip-path="url(#n)"><g transform="translate(-0.001)"><g clip-path="url(#o)"><rect width="31.826" height="11.595" transform="translate(0)" fill="#1e5272"/></g></g></g></g><g transform="translate(92.352 169.974)"><g clip-path="url(#p)"><rect width="28.658" height="38.018" transform="translate(-5.622 10.818) rotate(-62.537)" fill="#3a77a2"/></g></g><g transform="translate(92.865 169.974)" opacity="0.3" style="mix-blend-mode:multiply;isolation:isolate"><g clip-path="url(#q)"><g transform="translate(0 0)"><g clip-path="url(#r)"><rect width="34.662" height="9.892" transform="translate(0 -0.105)" fill="url(#s)"/></g></g></g></g><g transform="translate(92.352 159.499)"><g clip-path="url(#t)"><rect width="35.705" height="18.211" transform="translate(0 0)" fill="#3a77a2"/></g></g><g transform="translate(92.793 156.962)"><g clip-path="url(#u)"><rect width="15.324" height="35.773" transform="matrix(0.209, -0.978, 0.978, 0.209, -1.682, 7.873)" fill="#1e5272"/></g></g><g transform="translate(56.212 32.671)"><g clip-path="url(#v)"><rect width="160.724" height="167.66" transform="matrix(0.846, -0.533, 0.533, 0.846, -58.684, 36.963)" fill="#fdb250"/></g></g><g transform="translate(97.463 154.82)" opacity="0.5" style="mix-blend-mode:soft-light;isolation:isolate"><g clip-path="url(#w)"><path d="M1646.115,816.091c0,1.664-5.7,3.012-12.74,3.012s-12.74-1.348-12.74-3.012,5.7-3.012,12.74-3.012,12.74,1.348,12.74,3.012" transform="translate(-1620.634 -813.079)" fill="#f4f7fa"/></g></g><g transform="translate(96.776 85.314)"><g clip-path="url(#x)"><rect width="73.893" height="34.429" transform="translate(-22.83 66.56) rotate(-71.104)" fill="url(#y)"/></g></g><g transform="translate(111.968 85.314)"><g clip-path="url(#z)"><rect width="73.893" height="34.429" transform="matrix(0.324, -0.946, 0.946, 0.324, -22.83, 66.56)" fill="url(#aa)"/></g></g><g transform="translate(98.051 78.437)"><g clip-path="url(#ab)"><rect width="14.76" height="24.454" transform="translate(-2.448 6.847) rotate(-71.103)" fill="url(#ac)"/></g></g><g transform="translate(56.211 41.031)" opacity="0.3" style="mix-blend-mode:multiply;isolation:isolate"><g clip-path="url(#ad)"><g transform="translate(0.001 0)"><g clip-path="url(#ae)"><rect width="131.668" height="103.55" transform="translate(-14.561 120.003) rotate(-83.082)" fill="url(#af)"/></g></g></g></g><g transform="translate(64.605 42.549)" opacity="0.44" style="mix-blend-mode:soft-light;isolation:isolate"><g clip-path="url(#ag)"><path d="M1588.057,427.8c2.328,19.441-19.51,44.807-46.461,44.807-24.856,0-46.38-20.545-46.462-44.807-.071-21.206,16.574-41.306,34.721-43.363,11.981-1.358,21.676,5.476,32.539,13.133,11.433,8.059,24.075,16.97,25.663,30.23" transform="translate(-1495.133 -384.262)" fill="#f4f7fa"/></g></g><g transform="translate(135.469 38.113)"><g clip-path="url(#ah)"><rect width="60.219" height="65.384" transform="matrix(0.512, -0.859, 0.859, 0.512, -16.88, 28.271)" fill="url(#ai)"/></g></g><g transform="translate(185.597 68.622)"><g clip-path="url(#aj)"><rect width="12.63" height="5.741" transform="matrix(0.123, -0.992, 0.992, 0.123, -1.487, 12.015)" fill="url(#ak)"/></g></g><g transform="translate(86.79 0)"><g clip-path="url(#al)"><rect width="63.422" height="106.757" transform="translate(-7.668 46.456) rotate(-80.627)" fill="url(#am)"/></g></g><g transform="translate(86.785 0.708)"><g clip-path="url(#an)"><rect width="81.106" height="110.504" transform="translate(-16.302 41.37) rotate(-68.493)" fill="#3a77a2"/></g></g><g transform="translate(98.552 15.169)"><g clip-path="url(#ao)"><rect width="68.008" height="80.907" transform="translate(-14.857 42.98) rotate(-70.932)" fill="#32678d"/></g></g><g transform="translate(98.552 17.489)" opacity="0.3" style="mix-blend-mode:multiply;isolation:isolate"><g clip-path="url(#ap)"><g transform="translate(0 0)"><g clip-path="url(#aq)"><rect width="24.17" height="21.399" transform="matrix(0.327, -0.945, 0.945, 0.327, -6.223, 18.004)" fill="#1e5272"/></g></g></g></g><g transform="translate(147.571 72.014)"><g clip-path="url(#ar)"><rect width="4.484" height="7.213" transform="translate(-1.877 0.508) rotate(-15.965)" fill="#df9b67"/></g></g><g transform="translate(148.308 76.883)"><g clip-path="url(#as)"><rect width="28.057" height="22.38" transform="matrix(0.999, -0.032, 0.032, 0.999, -0.69, 0.022)" fill="#3a77a2"/></g></g><g transform="translate(175.243 151.985)"><g clip-path="url(#at)"><rect width="4.411" height="2.253" transform="matrix(1, -0.003, 0.003, 1, -0.106, 0)" fill="url(#au)"/></g></g><g transform="translate(177.999 150.501)"><g clip-path="url(#av)"><rect width="2.761" height="2.471" transform="matrix(0.515, -0.857, 0.857, 0.515, -1.029, 1.713)" fill="url(#aw)"/></g></g><g transform="translate(159.619 151.395)"><g clip-path="url(#ax)"><rect width="2.995" height="5.152" transform="matrix(0.234, -0.972, 0.972, 0.234, -0.439, 1.811)" fill="url(#ay)"/></g></g><g transform="translate(162.824 149.888)"><g clip-path="url(#az)"><rect width="2.915" height="2.819" transform="translate(-1.067 1.503) rotate(-54.634)" fill="url(#ba)"/></g></g><g transform="translate(162.804 109.544)"><g clip-path="url(#bb)"><rect width="43.61" height="28.507" transform="matrix(0.376, -0.927, 0.927, 0.376, -14.421, 35.545)" fill="#893976"/></g></g><g transform="translate(162.804 109.544)" opacity="0.3" style="mix-blend-mode:multiply;isolation:isolate"><g clip-path="url(#bc)"><g transform="translate(0)"><g clip-path="url(#bd)"><rect width="43.61" height="28.507" transform="matrix(0.376, -0.927, 0.927, 0.376, -14.421, 35.545)" fill="url(#be)"/></g></g></g></g><g transform="translate(174.683 109.246)"><g clip-path="url(#bf)"><rect width="42.694" height="30.943" transform="translate(-17.967 32.246) rotate(-60.874)" fill="#682458"/></g></g><g transform="translate(170.141 73.301)"><g clip-path="url(#bg)"><path d="M0,0H40.392V44.686H0Z" transform="translate(-11.312 17.057) rotate(-57.653)" fill="#e14778"/></g></g><g transform="translate(164.658 82.77)"><g clip-path="url(#bh)"><path d="M0,0H30.495V37.409H0Z" transform="translate(-1.68 0.037) rotate(-1.839)" fill="#3a77a2"/></g></g><g transform="translate(164.705 84.566)" opacity="0.3" style="mix-blend-mode:multiply;isolation:isolate"><g clip-path="url(#bi)"><g transform="translate(0.001 0)"><g clip-path="url(#bj)"><rect width="29.894" height="35.625" transform="translate(-1.127 0.007) rotate(-1.839)" fill="url(#bk)"/></g></g></g></g><g transform="translate(170.455 79.043)"><g clip-path="url(#bl)"><rect width="9.203" height="10.18" transform="matrix(0.302, -0.953, 0.953, 0.302, -2.005, 6.338)" fill="#ffb882"/></g></g><g transform="translate(171.996 77.472)"><g clip-path="url(#bm)"><rect width="6.29" height="6.182" transform="matrix(0.302, -0.953, 0.953, 0.302, -1.957, 4.591)" fill="#ffb882"/></g></g><path d="M1899.429,586.576l-2.861-6.478-2.045-4.63a1.412,1.412,0,0,1,.819-1.9l8.9-3.162a1.08,1.08,0,0,1,1.265.619l5.028,11.715a1.08,1.08,0,0,1-.658,1.452l-2.115.688-7.016,2.282a1.08,1.08,0,0,1-1.319-.585" transform="translate(-1725.261 -479.095)" fill="#37af79"/><g transform="translate(169.825 98.316)"><g clip-path="url(#bn)"><rect width="5.568" height="4.586" transform="translate(-0.937 0.142) rotate(-11.302)" fill="#fdb250"/></g></g><g transform="translate(173.667 83.336)"><g clip-path="url(#bo)"><rect width="21.052" height="24.203" transform="matrix(0.999, -0.032, 0.032, 0.999, -0.756, 0.024)" fill="#3a77a2"/></g></g><path d="M1425.91,839.417c.056,0,.1-.057.109-.133l1.98-32.8a.14.14,0,0,0-.1-.159c-.06-.007-.113.052-.119.132l-1.762,29.656V805.835c0-.08-.049-.146-.109-.146s-.109.065-.109.146v33.437a.134.134,0,0,0,.1.146h.005" transform="translate(-1379.348 -652.804)" fill="#b7c0ce"/><path d="M1341.876,809.226l21.725-3.18,41.738,2.534-21.86,3.5Z" transform="translate(-1317.396 -653.068)" fill="#f4f7fa"/><path d="M1383.479,819.222l-41.6-2.851v1.377l41.6,2.851,21.859-3.5v-1.377Z" transform="translate(-1317.396 -660.213)" fill="#b7c0ce"/><path d="M1494.6,869.182h0a.134.134,0,0,0,.1-.146V832.649c0-.081-.049-.146-.109-.146s-.109.065-.109.146V865.3l-1.665-32.659c0-.08-.057-.14-.117-.134a.139.139,0,0,0-.1.157l1.883,36.387a.128.128,0,0,0,.109.135" transform="translate(-1428.661 -672.597)" fill="#b7c0ce"/><path d="M1578.13,854.339h0a.134.134,0,0,0,.105-.146v-33.91c0-.08-.049-.146-.109-.146s-.109.065-.109.146V850.47l-1.527-30.2c0-.08-.058-.141-.118-.134a.139.139,0,0,0-.1.157l1.745,33.909a.128.128,0,0,0,.109.134" transform="translate(-1490.426 -663.47)" fill="#b7c0ce"/><path d="M1342.354,854.339a.128.128,0,0,0,.109-.134l1.853-33.909a.139.139,0,0,0-.1-.158c-.06-.007-.113.053-.118.133l-1.635,30.414V821.005c0-.081-.049-.146-.109-.146s-.109.065-.109.146v33.188a.133.133,0,0,0,.1.146h0" transform="translate(-1317.668 -663.47)" fill="#b7c0ce"/><path d="M1435.478,807.052l25.9-.193v.57a.313.313,0,0,1-.266.31l-7.323,1.123a1.177,1.177,0,0,1-.263.01l-17.765-1.28a.3.3,0,0,1-.281-.3Z" transform="translate(-1386.491 -653.667)" fill="#26264f"/><path d="M1470.154,774.59l16.232,1.043a.467.467,0,0,0,.527-.443V764.638a.5.5,0,0,0-.527-.477h-16.232a.432.432,0,0,0-.433.431v9.539a.467.467,0,0,0,.433.459" transform="translate(-1411.768 -622.148)" fill="#26264f"/><path d="M1469.166,774.59l16.232,1.043a.467.467,0,0,0,.526-.443V764.638a.5.5,0,0,0-.526-.477h-16.232a.432.432,0,0,0-.433.431v9.539a.467.467,0,0,0,.433.459" transform="translate(-1411.039 -622.148)" fill="#26264f"/><g transform="translate(58.275 142.625)"><g clip-path="url(#bp)"><path d="M0,0H15.9V10.064H0Z" transform="translate(0 0)" fill="#e14778"/></g></g><path d="M1499.195,764.764a.187.187,0,1,0,.187-.177.183.183,0,0,0-.187.177" transform="translate(-1433.526 -622.462)" fill="#fff"/><g transform="translate(57.748 142.013)" opacity="0.48" style="mix-blend-mode:soft-light;isolation:isolate"><g clip-path="url(#bq)"><path d="M1473.161,771.7c1.258-.613,2.247.164,3.2-.6.579-.464.294-.811,1.007-1.5.789-.769,1.3-.51,2.094-1.2,1-.875.5-1.555,1.364-2.183,1.047-.762,2.177-.057,3.173-.787a2.166,2.166,0,0,0,.789-1.26h.975a.3.3,0,0,1,.31.28v10.946a.274.274,0,0,1-.31.26l-16.628-1.069a.273.273,0,0,1-.2-.111,3.968,3.968,0,0,0,2.443-.792c.935-.747.773-1.484,1.781-1.975" transform="translate(-1468.938 -764.162)" fill="#fff"/></g></g><g transform="translate(48.987 152.41)"><g clip-path="url(#br)"><rect width="25.898" height="2.281" fill="url(#bs)"/></g></g><g transform="translate(53.37 152.592)" opacity="0.3" style="mix-blend-mode:multiply;isolation:isolate"><g clip-path="url(#bt)"><path d="M1471.194,805.5l-14.491-.928-4.485.522,14.366.992Z" transform="translate(-1452.219 -804.57)" fill="#26264f"/></g></g><g transform="translate(52.935 186.477)"><g clip-path="url(#bu)"><rect width="2.441" height="5.387" transform="translate(-0.236 2.024) rotate(-85.508)" fill="url(#bv)"/></g></g><g transform="translate(52.88 185.027)"><g clip-path="url(#bw)"><rect width="1.865" height="2.341" transform="translate(-0.33 0.053) rotate(-9.056)" fill="url(#bx)"/></g></g><g transform="translate(63.582 185.752)"><g clip-path="url(#by)"><rect width="2.441" height="5.387" transform="translate(-0.236 2.024) rotate(-85.507)" fill="url(#bz)"/></g></g><g transform="translate(63.527 184.303)"><g clip-path="url(#ca)"><rect width="1.865" height="2.341" transform="translate(-0.33 0.053) rotate(-9.056)" fill="url(#cb)"/></g></g><g transform="translate(27.376 160.852)"><g clip-path="url(#cc)"><rect width="39.739" height="37.933" transform="translate(-11.993 7.676) rotate(-33.906)" fill="#228f5e"/></g></g><g transform="translate(30.744 162.794)"><g clip-path="url(#cd)"><rect width="35.285" height="22.902" transform="translate(-0.382 0)" fill="#37af79"/></g></g><g transform="translate(26.689 137.552)"><g clip-path="url(#ce)"><rect width="43.462" height="43.796" transform="matrix(0.723, -0.691, 0.691, 0.723, -18.667, 17.152)" fill="#fd7e50"/></g></g><g transform="translate(62.74 152.62)"><g clip-path="url(#cf)"><rect width="6.025" height="2.655" transform="translate(-0.3 0.066) rotate(-12.356)" fill="url(#cg)"/></g></g><g transform="translate(37.699 131.582)"><g clip-path="url(#ch)"><rect width="10.639" height="10.967" transform="translate(-2.994 6.63) rotate(-66.448)" fill="#ffb882"/></g></g><path d="M1337.033,720.594c.222.489-.316,1.47-.515,1.613a1.2,1.2,0,0,0-.261.285.38.38,0,0,0-.041.085c-.158.454.564.988.424,1.191-.1.148-.592-.049-.65.078s.353.368.29.511c-.047.108-.3.009-.456.175a.606.606,0,0,0-.139.4c-.02.645,1.443,2.975,1.748,4.027.323,1.115-.255,2.176-2.355,5.109-2.987,4.172-4.481,6.257-5.312,6.853-4.059,2.914-8.832,2.557-10.789,2.253-2.351-.365-7.209-1.12-8.774-4.861-1.8-4.3,1.742-10.185,5.375-11.184,1.661-.457,2.546.237,4.7-.514,2.382-.829,2.094-2.3,4.3-3.161,2.942-1.155,4.84.91,6.845-.594,1.091-.818.911-1.716,2.253-2.371,1.324-.646,3.063-.536,3.353.1" transform="translate(-1293.66 -589.591)" fill="#893976"/><g transform="translate(42.234 133.907)"><g clip-path="url(#ci)"><rect width="1.312" height="1.236" transform="matrix(0.4, -0.917, 0.917, 0.4, -0.383, 0.874)" fill="url(#cj)"/></g></g><g transform="translate(28.081 145.544)" opacity="0.3" style="mix-blend-mode:multiply;isolation:isolate"><g clip-path="url(#ck)"><g transform="translate(0.001 0)"><g clip-path="url(#cl)"><rect width="34.442" height="34.694" transform="matrix(0.723, -0.691, 0.691, 0.723, -14.137, 13.167)" fill="url(#cm)"/></g></g></g></g><g transform="translate(44.208 139.316)"><g clip-path="url(#cn)"><rect width="27.242" height="27.219" transform="translate(-9.805 9.02) rotate(-43.678)" fill="#fd7e50"/></g></g><path d="M1357.51,941.554c0,2.109,4.19,3.82,9.359,3.82s9.359-1.71,9.359-3.82-4.19-3.82-9.359-3.82-9.359,1.71-9.359,3.82" transform="translate(-1328.936 -750.277)" fill="#b7c0ce"/><g transform="translate(28.574 185.579)"><g clip-path="url(#co)"><rect width="18.718" height="8.855" transform="translate(0 0)" fill="#3a77a2"/></g></g><g transform="translate(28.574 185.579)" opacity="0.3" style="mix-blend-mode:multiply;isolation:isolate"><g clip-path="url(#cp)"><g transform="translate(0 0)"><g clip-path="url(#cq)"><rect width="15.745" height="7.019" transform="translate(0 0)" fill="url(#cr)"/></g></g></g></g><path d="M1389.81,905.875a2.122,2.122,0,0,0,1.051.006.676.676,0,0,0,.5-.658V894.67h-2.081v10.541a.689.689,0,0,0,.528.665" transform="translate(-1352.39 -718.488)" fill="#fff"/><g transform="translate(36.892 176.182)" opacity="0.65" style="mix-blend-mode:multiply;isolation:isolate"><g clip-path="url(#cs)"><g transform="translate(0.001 0)"><g clip-path="url(#ct)"><rect width="2.081" height="11.299" transform="translate(0 0)" fill="#1e5272"/></g></g></g></g><g transform="translate(25.024 157.799)"><g clip-path="url(#cu)"><rect width="31.93" height="32.873" transform="matrix(0.609, -0.793, 0.793, 0.609, -10.797, 12.934)" fill="#3a77a2"/></g></g><g transform="translate(28.375 158.861)" opacity="0.26" style="mix-blend-mode:soft-light;isolation:isolate"><g clip-path="url(#cv)"><path d="M1375.84,842.823c-.118-.707-2.087-.121-3.95-1.505-2.785-2.069-1.34-5.573-3.762-8.935-2.223-3.085-6.7-4.656-8.089-3.48-1.849,1.565,2.677,7.417,0,11.193-1.3,1.834-3.281,1.746-3.292,2.822-.016,1.7,4.915,3.66,9.594,3.574,5.03-.092,9.686-2.547,9.5-3.668" transform="translate(-1356.748 -828.513)" fill="#fff"/></g></g><g transform="translate(77.685 201.172)"><g clip-path="url(#cw)"><rect width="2.988" height="2.7" transform="matrix(0.833, -0.553, 0.553, 0.833, -0.844, 0.47)" fill="url(#cx)"/></g></g><path d="M1544.911,983.53l-1.305.065c.452-.822-.091-3.058-.091-3.058l1.409.041s-.035.649-.12,1.614a6.087,6.087,0,0,0,.108,1.338" transform="translate(-1466.241 -781.873)" fill="#d8dee8"/><g transform="translate(76.998 201.462)"><g clip-path="url(#cy)"><rect width="2.459" height="2.221" transform="matrix(0.833, -0.553, 0.553, 0.833, -0.765, 0.387)" fill="url(#cz)"/></g></g><g transform="translate(94.305 204.14)"><g clip-path="url(#da)"><rect width="3.007" height="2.943" transform="translate(-0.962 0.76) rotate(-41.653)" fill="url(#db)"/></g></g><path d="M1606.26,995.9l-1.282.252c.33-.878-.53-3.014-.53-3.014l1.4-.161s.059.647.112,1.614a6.1,6.1,0,0,0,.3,1.309" transform="translate(-1511.222 -791.054)" fill="#d8dee8"/><g transform="translate(93.598 204.604)"><g clip-path="url(#dc)"><rect width="2.4" height="2.351" transform="translate(-0.768 0.613) rotate(-41.653)" fill="url(#dd)"/></g></g><g transform="translate(73.321 158.861)"><g clip-path="url(#de)"><rect width="10.564" height="41.213" transform="translate(-0.294 0)" fill="url(#df)"/></g></g><g transform="translate(74.159 158.861)" opacity="0.3" style="mix-blend-mode:multiply;isolation:isolate"><g clip-path="url(#dg)"><g transform="translate(-0.001 0)"><g clip-path="url(#dh)"><rect width="9.886" height="41.212" transform="translate(-0.452 0)" fill="url(#di)"/></g></g></g></g><g transform="translate(79.463 159.516)"><g clip-path="url(#dj)"><rect width="23.656" height="46.114" transform="translate(-7.907 1.386) rotate(-10.229)" fill="url(#dk)"/></g></g><path d="M1611.713,734.511l5.5-12.892a1.134,1.134,0,0,0-.775-1.547l-10.082-2.448a1.134,1.134,0,0,0-1.317.673l-5.062,12.391a1.133,1.133,0,0,0,.718,1.512l9.64,2.95a1.134,1.134,0,0,0,1.374-.639" transform="translate(-1507.862 -587.772)" fill="#5d2e67"/><path d="M1612.959,735.287l5.141-12.043a1.059,1.059,0,0,0-.724-1.444l-9.417-2.287a1.059,1.059,0,0,0-1.23.628L1602,731.716a1.059,1.059,0,0,0,.67,1.413l9,2.755a1.059,1.059,0,0,0,1.284-.6" transform="translate(-1509.357 -589.168)" fill="#fff"/><g transform="translate(105.793 136.998)"><g clip-path="url(#dl)"><rect width="2.279" height="5.581" transform="translate(-0.074)" fill="url(#dm)"/></g></g><g transform="translate(70.112 125.751)"><g clip-path="url(#dn)"><path d="M0,0H31.921V42.154H0Z" transform="translate(-2.071 0)" fill="#37af79"/></g></g><path d="M1562.121,683.285a3.187,3.187,0,0,0-.342-2.284c-.487-.9-.611-1.02-.843-1.176l-.323-.2-.039-.014a3.726,3.726,0,0,0-1.056-.065c-.457.1-.943,1.958-.8,4.589q-.029.15-.055.3-.108.623-.173,1.221c-.042.381-.583.372-.965.348-1.552-.1-2.312.033-2.378.264-.124.433,1.717,1.849,3.991,2.168,3.051.023,5.533-.3,5.266-.783-.118-.213-2.482-.831-3.147-1.443a2.035,2.035,0,0,1-.609-1.554c.185-.1,1.255-.585,1.477-1.376" transform="translate(-1474.822 -559.678)" fill="#ffb882"/><path d="M1564.713,668.876a3.059,3.059,0,0,1-.583,1.825,1.367,1.367,0,0,0-.295.322.4.4,0,0,0-.047.1c-.178.513.638,1.118.481,1.348-.115.167-.669-.056-.735.088s.4.416.329.579c-.053.123-.337.01-.516.2-.089.093-.063.168-.158.454a2.587,2.587,0,0,1-.186.437c-.282.479-1.079.654-1.233.462-.043-.053-.006-.1-.05-.277a1.436,1.436,0,0,0-.156-.358,3.705,3.705,0,0,0-.965-.76,2.64,2.64,0,0,1-1.007-1.147c-.022-.055-.035-.1-.045-.126a3.03,3.03,0,0,1,.076-2.026c.452-.909,1.473-.477,2.308-1.378.964-1.04.39-2.46.913-2.617.576-.173,1.875,1.373,1.87,2.88" transform="translate(-1477.975 -549.675)" fill="#5d2e67"/><path d="M1575.294,689.7c-.2-.274-.551-.017-.553.338s.342.724.676.654.146-.623-.123-.993" transform="translate(-1489.293 -567.096)" fill="#ffb882"/><path d="M1576.235,687.752l.463.6s.5.739.791.334c.238-.331.3-.323.315-.309s0,.007,0,.006-.035-.165-.07-.308a2.7,2.7,0,0,1,.4.851,1.506,1.506,0,0,1,0,1.164,1.156,1.156,0,0,1-.681.533,3.059,3.059,0,0,1-.9-.088s.791-.574.8-.711c.033-.371-.481-.571-.863-1.332a3.042,3.042,0,0,1-.258-.742" transform="translate(-1490.396 -565.745)" fill="#5d2e67"/><g transform="translate(73.187 136.247)" opacity="0.3" style="mix-blend-mode:multiply;isolation:isolate"><g clip-path="url(#do)"><g transform="translate(0.001 0)"><g clip-path="url(#dp)"><rect width="38.981" height="39.266" transform="translate(-16 14.902) rotate(-43.678)" fill="#228f5e"/></g></g></g></g><g transform="translate(91.439 129.198)"><g clip-path="url(#dq)"><rect width="16.305" height="22.099" transform="translate(-0.407 0)" fill="#228f5e"/></g></g></g></svg>