<svg xmlns="http://www.w3.org/2000/svg" xmlns:xlink="http://www.w3.org/1999/xlink" width="107.047" height="108" viewBox="0 0 107.047 108"><defs><clipPath id="a"><path d="M175.1,128.971c-6.512.872-41.705,35.371-41.705,35.371-6.532,6.3-8.857,15.406,2.209,16.06s20.614-24.742,23.2-30.175,11.3-3.677,14.116-7.367c2.717-3.553,8.247-13.937,2.853-13.937a5.108,5.108,0,0,0-.677.048" transform="translate(-127.902 -128.923)" fill="none"/></clipPath><clipPath id="b"><path d="M175.1,128.971c-6.512.872-41.705,35.371-41.705,35.371-6.532,6.3-8.857,15.406,2.209,16.06.133.008.268.012.4.012h.044c6.053-.022,11.626-7.722,15.826-15.453a49.107,49.107,0,0,1,24.381-36.008,3.81,3.81,0,0,0-.489-.03,4.918,4.918,0,0,0-.666.047" transform="translate(-127.902 -128.924)" fill="#e14778"/></clipPath><clipPath id="c"><path d="M61.044,81.306c-2.649,3.02-11.572.733-21.838-1.553C24.538,76.486,7.128,73.219,1.358,85.427-8.45,106.168,37.75,121,54.432,119.915S78,111.5,84.57,101.943c0,0,16.98-33.983,2.954-47.852-2.349-2.324-4.476-3.312-6.416-3.313-9.646,0-14.716,24.422-20.065,30.528" transform="translate(-0.006 -50.778)" fill="none"/></clipPath><clipPath id="d"><path d="M61.041,81.306c-2.649,3.02-11.572.733-21.838-1.553C24.535,76.486,7.125,73.219,1.355,85.427-5.165,99.2,13.025,110.375,30.864,116A40.662,40.662,0,0,1,87.437,95.327c4.138-10.583,10.25-31.182.084-41.236-2.349-2.324-4.476-3.312-6.416-3.313-9.646,0-14.716,24.422-20.065,30.528" transform="translate(0 -50.778)" fill="#893976"/></clipPath><clipPath id="e"><path d="M178.228,0c-4.171.028-9.758,3.337-16.839,11.189-38,42.133-3.382,71.07-3.382,71.07C187.572,62.355,196.409.122,178.337,0Z" transform="translate(-143.576 -0.001)" fill="#fd7e50"/></clipPath><clipPath id="f"><path d="M188.8,19.046A49.248,49.248,0,0,1,150.219,67.13a45.429,45.429,0,0,0,11.52,16.8C180.943,70.995,191.4,40.2,191.423,20.18v-.114c-.009-8.136-1.749-14.48-5.336-17.1a49.334,49.334,0,0,1,2.71,16.076" transform="translate(-150.219 -2.97)" fill="none"/></clipPath><clipPath id="g"><path d="M16.383,199.1c-9.06-2.64-22.064,7.375-11.031,12.889,39.787,13,71.135-21.227,71.135-21.227-37.607,19.37-51.044,10.982-60.1,8.339" transform="translate(-1.121 -190.758)" fill="none"/></clipPath></defs><g transform="translate(56.061 56.508)"><g clip-path="url(#a)"><path d="M0,0H76.836V76.2H0Z" transform="translate(-28.9 20.853) rotate(-39.233)" fill="#b42b56"/></g></g><g transform="translate(56.061 56.509)"><g clip-path="url(#b)"><path d="M0,0H72.626V72.594H0Z" transform="translate(-28.588 20.598) rotate(-39.233)" fill="#e14778"/></g></g><g transform="translate(0.002 22.256)"><g transform="translate(0)" clip-path="url(#c)"><rect width="120.101" height="87.458" transform="translate(-19.913 1.918) rotate(-9.522)" fill="#722a61"/></g></g><g transform="translate(0 22.256)"><g transform="translate(0)" clip-path="url(#d)"><path d="M0,0H112.226V81.343H0Z" transform="matrix(0.986, -0.165, 0.165, 0.986, -15.807, 1.781)" fill="#893976"/></g></g><g transform="translate(62.931)"><g clip-path="url(#e)"><path d="M0,0H109.992V109.137H0Z" transform="translate(-60.965 46.504) rotate(-48.754)" fill="#fd7e50"/></g></g><g transform="translate(65.843 1.301)"><g clip-path="url(#f)"><rect width="88.036" height="84.355" transform="translate(-40.132 45.768) rotate(-48.754)" fill="#d96135"/></g></g><g transform="translate(0.491 83.611)"><g clip-path="url(#g)"><rect width="85.294" height="78.482" transform="matrix(0.775, -0.632, 0.632, 0.775, -23.571, 13.692)" fill="#37af79"/></g></g></svg>