<svg xmlns="http://www.w3.org/2000/svg" xmlns:xlink="http://www.w3.org/1999/xlink" width="140" height="86" viewBox="0 0 140 86"><defs><clipPath id="a"><circle cx="9" cy="9" r="9" transform="translate(1237 859)" fill="#a145b1"/></clipPath></defs><g transform="translate(-114 -743)"><rect width="140" height="86" rx="3" transform="translate(114 743)" fill="#fff"/><g transform="translate(-1036 -48)"><g transform="translate(1150 791)"><path d="M3,0H137a3,3,0,0,1,3,3v9a0,0,0,0,1,0,0H0a0,0,0,0,1,0,0V3A3,3,0,0,1,3,0Z" fill="#893976"/><rect width="140" height="2" transform="translate(0 10)" fill="rgba(36,37,44,0.6)" opacity="0.1"/><g transform="translate(-141 3)"><rect width="20" height="2" rx="1" transform="translate(159 2)" fill="#f8f8fa" opacity="0.4"/><rect width="6" height="6" rx="3" transform="translate(147)" fill="#f8f8fa" opacity="0.7"/></g><g transform="translate(-32 4)"><rect width="8" height="4" rx="2" transform="translate(158)" fill="#fd7d4e"/><rect width="8" height="4" rx="2" transform="translate(147)" fill="#f8f8fa" opacity="0.7"/></g><g transform="translate(-44.272 -14)"><g transform="translate(98.272 32)"><g transform="translate(22 5)"><rect width="44" height="3" rx="1.5" transform="translate(0 6)" fill="#c3c4c7"/><rect width="30" height="3" rx="1.5" fill="#9a9da2" opacity="0.8"/></g><g transform="translate(-1216 -845)"><circle cx="9" cy="9" r="9" transform="translate(1216 845)" fill="#e14778"/><g transform="translate(-21 -14)" clip-path="url(#a)"><g opacity="0.5"><path d="M356.636,318.011h-5.091A3.635,3.635,0,0,0,348,321.723v1.35a1,1,0,1,0,2,0v-1.35a1.623,1.623,0,0,1,1.545-1.687h5.091a1.623,1.623,0,0,1,1.546,1.687v1.35a1,1,0,1,0,2,0v-1.35A3.636,3.636,0,0,0,356.636,318.011Z" transform="translate(892 552.915)" fill="#fff"/><path d="M354.091,317.171a3.543,3.543,0,1,0-3.5-3.543A3.522,3.522,0,0,0,354.091,317.171Zm0-5.061a1.518,1.518,0,1,1-1.5,1.518A1.509,1.509,0,0,1,354.091,312.11Z" transform="translate(892 552.915)" fill="#fff"/></g></g></g></g><g transform="translate(98.272 54)"><g transform="translate(22 5)"><rect width="38" height="3" rx="1.5" transform="translate(0 6)" fill="#c3c4c7"/><rect width="20" height="3" rx="1.5" fill="#9a9da2" opacity="0.8"/></g><g transform="translate(-1216 -845)"><circle cx="9" cy="9" r="9" transform="translate(1216 845)" fill="#fd7d4e"/><g transform="translate(-21 -14)" clip-path="url(#a)"><g opacity="0.5"><path d="M356.636,318.011h-5.091A3.635,3.635,0,0,0,348,321.723v1.35a1,1,0,1,0,2,0v-1.35a1.623,1.623,0,0,1,1.545-1.687h5.091a1.623,1.623,0,0,1,1.546,1.687v1.35a1,1,0,1,0,2,0v-1.35A3.636,3.636,0,0,0,356.636,318.011Z" transform="translate(892 552.915)" fill="#fff"/><path d="M354.091,317.171a3.543,3.543,0,1,0-3.5-3.543A3.522,3.522,0,0,0,354.091,317.171Zm0-5.061a1.518,1.518,0,1,1-1.5,1.518A1.509,1.509,0,0,1,354.091,312.11Z" transform="translate(892 552.915)" fill="#fff"/></g></g></g></g><g transform="translate(98.272 76)"><g transform="translate(22 5)"><rect width="50" height="3" rx="1.5" transform="translate(0 6)" fill="#c3c4c7"/><rect width="25" height="3" rx="1.5" fill="#9a9da2" opacity="0.8"/></g><g transform="translate(-1216 -845)"><circle cx="9" cy="9" r="9" transform="translate(1216 845)" fill="#37ae79"/><g transform="translate(-21 -14)" clip-path="url(#a)"><g opacity="0.5"><path d="M356.636,318.011h-5.091A3.635,3.635,0,0,0,348,321.723v1.35a1,1,0,1,0,2,0v-1.35a1.623,1.623,0,0,1,1.545-1.687h5.091a1.623,1.623,0,0,1,1.546,1.687v1.35a1,1,0,1,0,2,0v-1.35A3.636,3.636,0,0,0,356.636,318.011Z" transform="translate(892 552.915)" fill="#fff"/><path d="M354.091,317.171a3.543,3.543,0,1,0-3.5-3.543A3.522,3.522,0,0,0,354.091,317.171Zm0-5.061a1.518,1.518,0,1,1-1.5,1.518A1.509,1.509,0,0,1,354.091,312.11Z" transform="translate(892 552.915)" fill="#fff"/></g></g></g></g></g><g transform="translate(-1150 -795)"><path d="M0,0H14a0,0,0,0,1,0,0V74a0,0,0,0,1,0,0H3a3,3,0,0,1-3-3V0A0,0,0,0,1,0,0Z" transform="translate(1150 807)" fill="#f0e0d8"/><g transform="translate(-12803 -4260.1)"><g transform="translate(13953 5067.099)"><rect width="14" height="12" fill="#f6eeea"/><rect width="2" height="12" fill="#b4599e"/><circle cx="2" cy="2" r="2" transform="translate(5 4)" fill="#893976"/></g><g transform="translate(13953 5065)"><g transform="translate(0 51.841)"><rect width="14" height="12" transform="translate(0 0.259)" fill="#fff" opacity="0"/><circle cx="2" cy="2" r="2" transform="translate(5 4.259)" fill="#b4599e" opacity="0.6"/></g><g transform="translate(0 39.841)"><rect width="14" height="12" transform="translate(0 0.259)" fill="#fff" opacity="0"/><circle cx="2" cy="2" r="2" transform="translate(5 4.259)" fill="#b4599e" opacity="0.6"/></g><g transform="translate(0 27.841)"><rect width="14" height="12" transform="translate(0 0.259)" fill="#fff" opacity="0"/><circle cx="2" cy="2" r="2" transform="translate(5 4.259)" fill="#b4599e" opacity="0.6"/></g><g transform="translate(0 15.841)"><rect width="14" height="12" transform="translate(0 0.259)" fill="#fff" opacity="0"/><circle cx="2" cy="2" r="2" transform="translate(5 4.259)" fill="#b4599e" opacity="0.6"/></g></g><rect width="12" height="2" transform="translate(13953 5079.1)" fill="rgba(0,0,0,0.05)"/><rect width="2" height="62" transform="translate(13965 5079.1)" fill="rgba(0,0,0,0.05)"/></g><rect width="34" height="74" transform="translate(1164 807)" fill="#f6eeea"/><rect width="2" height="74" transform="translate(1196 807)" fill="rgba(0,0,0,0.05)"/><g transform="translate(-12818 -4266)"><g transform="translate(13989)"><g transform="translate(0 27)"><circle cx="2" cy="2" r="2" transform="translate(0 5078)" fill="#c3c4c7"/><rect width="8" height="2" rx="1" transform="translate(6 5079)" fill="#9a9da2"/></g><g transform="translate(0 18)"><circle cx="2" cy="2" r="2" transform="translate(0 5078)" fill="#c3c4c7"/><rect width="8" height="2" rx="1" transform="translate(6 5079)" fill="#9a9da2"/></g><g transform="translate(0 9)"><circle cx="2" cy="2" r="2" transform="translate(0 5078)" fill="#c3c4c7"/><rect width="8" height="2" rx="1" transform="translate(6 5079)" fill="#9a9da2"/></g><circle cx="2" cy="2" r="2" transform="translate(0 5078)" fill="#c3c4c7"/><rect width="8" height="2" rx="1" transform="translate(6 5079)" fill="#9a9da2"/></g></g><g transform="translate(1167 857.18)"><g transform="translate(0 -40.18)" fill="#ebedf2" stroke="#fd7e50" stroke-width="2"><rect width="24" height="12" rx="3" stroke="none"/><rect x="1" y="1" width="22" height="10" rx="2" fill="none"/></g><g transform="translate(3 -5115.18)"><circle cx="2" cy="2" r="2" transform="translate(1 5079)" fill="#9a9da2"/><rect width="8" height="2" rx="1" transform="translate(7 5080)" fill="#545762" opacity="0.9"/></g></g></g></g></g></g></svg>